<mxfile host="app.diagrams.net" modified="2022-03-27T22:31:37.164Z" agent="5.0 (X11; Linux x86_64) AppleWebKit/537.36 (KHTML, like Gecko) Chrome/99.0.4844.82 Safari/537.36" etag="3-uZ1W3QZ9I2yskq2AA4" version="17.2.4" type="github">
  <diagram id="u_j4B6XInfGjHpuSreV1" name="Page-1">
    <mxGraphModel dx="723" dy="353" grid="1" gridSize="10" guides="1" tooltips="1" connect="1" arrows="1" fold="1" page="1" pageScale="1" pageWidth="827" pageHeight="1169" math="0" shadow="0">
      <root>
        <mxCell id="0" />
        <mxCell id="1" parent="0" />
        <mxCell id="8dpQ0Yl2feOmEA2Zb6H8-3" value="" style="shape=image;verticalLabelPosition=bottom;labelBackgroundColor=default;verticalAlign=top;aspect=fixed;imageAspect=0;image=data:image/png,iVBORw0KGgoAAAANSUhEUgAABVYAAAKeCAYAAABOJUBFAAAABHNCSVQICAgIfAhkiAAAAAlwSFlzAAAPYQAAD2EBqD+naQAAADh0RVh0U29mdHdhcmUAbWF0cGxvdGxpYiB2ZXJzaW9uMy4xLjIsIGh0dHA6Ly9tYXRwbG90bGliLm9yZy8li6FKAAAgAElEQVR4nOzdeVxVdf7H8feVfVFQRC+4ImJiariXqeAuqWE542QuqOVS2kRqouWemZZbxZCOFZQ5kraoaZKVS1pWuBemTaVliUqJKLIocH5/MNyfNxA5iGL1ej4e93Ef53u+y+d71HnMvOeccy2GYRgCAAAAAAAAAJRapYouAAAAAAAAAAD+aAhWAQAAAAAAAMAkglUAAAAAAAAAMIlgFQAAAAAAAABMIlgFAAAAAAAAAJMIVgEAAAAAAADAJIJVAAAAAAAAADCJYBUAAAAAAAAATCJYBQAAAAAAAACTCFYBAAAAAAAAwCSCVQAAAAAAAAAwiWAVAAAAAAAAAEwiWAUAAAAAAAAAkwhWAQAAAAAAAMAkglUAAAAAAAAAMIlgFQAAAAAAAABMIlgFAAAAAAAAAJMIVgEAAAAAAADAJIJVAAAAAAAAADCJYBUAAAAAAAAATCJYBQAAAAAAAACTCFYBAAAAAAAAwCSCVQAAAAAAAAAwiWAVAAAAAAAAAEwiWAUAAAAAAAAAkwhWAQAAAAAAAMAkglUAAAAAAAAAMIlgFQAAAAAAAABMIlgFAAAAAAAAAJMIVgEAAAAAAADAJIJVAAAAAAAAADCJYBUAAAAAAAAATCJYBQAAAAAAAACTCFYBAAAAAAAAwCSCVQAAAAAAAAAwiWAVAAAAAAAAAEwiWAUAAAAAAAAAkwhWAQAAAAAAAMAkglUAAAAAAAAAMIlgFQAAAAAAAABMIlgFAAAAAAAAAJMIVgEAAAAAAADAJIJVAAAAAAAAADCJYBUAAAAAAAAATCJYBQAAAAAAAACTCFYBAAAAAAAAwCSCVQAAAAAAAAAwiWAVAAAAAAAAAEwiWAUAAAAAAAAAkwhWAQAAAAAAAMAkglUAAAAAAAAAMIlgFQAAAAAAAABMIlgFAAAAAAAAAJMIVgEAAAAAAADAJIJVAAAAAAAAADCJYBUAAAAAAAAATCJYBQAAAAAAAACTCFYBAAAAAAAAwCSCVQAAAAAAAAAwiWAVAADgOnjhhRdksVjUtGnTii7lT+vixYsaM2aM/Pz85ODgoJCQkKuOee+999S3b1/VrFlTzs7Oqlatmrp27aqVK1fq0qVLtn4Wi0UWi0Xz5s0rMkd8fLwsFot2795ta5s5c6YsFotq1Kih8+fPFxlTv3599enTp4w7vXEK91EWw4YNU/369cu3IAAAgJsYwSoAAMB18Oqrr0qSkpOT9cUXX1RwNX9OL730kpYtW6Ynn3xSO3fu1IoVK67Y1zAMDR8+XHfffbfy8/O1aNEiffTRR3rttdd022236eGHH1ZsbGyRcfPmzdOZM2dKXVNqaqqeffbZMu0HAAAAfywEqwAAAOVs9+7dOnDggHr37i1JeuWVVyq4oivLysqSYRgVXUaZfP3113Jzc9O4ceN0xx13qFmzZlfs+9xzzyk+Pl6zZs3Sxo0bNWjQIHXq1El9+/bVokWLdOTIEbVq1cpuTLdu3XThwgU9/fTTpa6pV69eWrx4sU6ePFnmfQEAAOCPgWAVAACgnBUGqfPmzVP79u2VkJCgzMzMIv1ycnI0e/ZsBQcHy9XVVT4+PurcubM+++wzW5/8/Hy9+OKLCgkJkZubm7y9vXX77bdr/fr1tj4Wi0UzZ84sMn/9+vU1bNgw23HhI+ybN2/WiBEj5OvrK3d3d+Xk5Oi7777T8OHDFRQUJHd3d9WqVUt9+/bVV199VWTes2fPasKECWrQoIFcXFxUo0YN3XXXXTp8+LAMw1BQUJB69uxZZFxGRoa8vLw0duzYEq9fdna2pkyZooCAADk7O6tWrVoaO3aszp49a7fnl19+WVlZWbbH9uPj44ud79KlS5o/f74aN26sadOmFdvHarWqQ4cOdm233HKLHnjgAf3rX//Sjz/+WGLNhebMmaPc3Nxi/zxKo/CVARs2bFCLFi3k5uam4OBgbdiwQVLBn2FwcLA8PDzUtm1bu9cRFFq/fr3uuOMOubu7q3Llyurevbt27dpVpN/GjRsVEhIiFxcXBQQEaMGCBcXWZBiGYmNjbX8Hq1atqr/97W/64YcfrrqfNWvWqF27dvLy8pK7u7saNGigESNGmLwqAAAANyeCVQAAgHKUlZWlVatWqU2bNmratKlGjBih8+fPa82aNXb9cnNzFR4erqeeekp9+vTRu+++q/j4eLVv314//fSTrd+wYcP06KOPqk2bNnrzzTeVkJCgu+++W8eOHStzjSNGjJCTk5NWrFiht956S05OTjpx4oR8fHw0b948JSYm6l//+pccHR3Vrl07HTlyxDb2/Pnz6tChg5YtW6bhw4frvffe09KlS9WoUSOlpKTIYrHokUce0Ycffqj//ve/duu+/vrrOnfuXInBqmEY6tevnxYsWKAhQ4Zo48aNGj9+vF577TV16dJFOTk5kqRdu3bprrvukpubm3bt2qVdu3bZ7hD+vd27d+vMmTOKiIgw/f7QmTNnysHB4YqB7O/Vq1dPDz/8sF555RV9++23ptYqdODAAU2ZMkXR0dF655135OXlpXvvvVczZszQyy+/rLlz52rlypVKT09Xnz59lJWVZRv7n//8RxEREapSpYpWrVqlV155RWlpaQoLC9POnTtt/T7++GNFRESocuXKSkhI0HPPPafVq1crLi6uSD2jR49WVFSUunXrprVr1yo2NlbJyclq3769Tp06dcV97Nq1S//4xz/UoEEDJSQkaOPGjZo+fbpyc3PLdF0AAABuOgYAAADKzeuvv25IMpYuXWoYhmGcP3/e8PT0NDp27Fhsv+XLl19xrk8++cSQZDz55JMlrinJmDFjRpH2evXqGZGRkbbjuLg4Q5IxdOjQq+4jNzfXuHjxohEUFGQ89thjtvbZs2cbkowPP/zwimPPnTtnVK5c2Xj00Uft2ps0aWJ07ty5xHUTExMNScazzz5r1/7mm28akox///vftrbIyEjDw8PjqntJSEiw+zMpDUnG2LFjDcMwjCeffNKoVKmSceDAAcMw/v86JiUl2frPmDHDkGSkpqYav/76q+Hl5WX079/fdr5evXpG7969r7puvXr1DDc3N+Pnn3+2te3fv9+QZPj5+RkXLlywta9du9aQZKxfv94wDMPIy8sz/P39jWbNmhl5eXm2fufPnzdq1KhhtG/f3tbWrl07w9/f38jKyrK1nTt3zqhWrZpx+f9E2LVrlyHJWLhwoV2dx48fN9zc3IxJkybZ2iIjI4169erZjhcsWGBIMs6ePXvVfQMAAPwRcccqAABAOXrllVfk5uam++67T5Lk6empv//979qxY4fdHZybNm2Sq6triY9Fb9q0SZKu+ui8Wf379y/Slpubq7lz56pJkyZydnaWo6OjnJ2d9d///lfffPONXU2NGjVSt27drjh/5cqVNXz4cMXHx+vChQuSpC1btujQoUMaN25cibVt2bJFkuxeYSBJf//73+Xh4aGPP/64tNssN5MmTVK1atUUHR1dqv4+Pj6Kjo7W22+/XaYfLgsJCVGtWrVsx8HBwZKksLAwubu7F2kvfE3BkSNHdOLECQ0ZMkSVKv3/f8339PRU//799fnnnyszM1MXLlxQUlKS7r33Xrm6utr6Va5cWX379rWrZcOGDbJYLBo8eLByc3NtH6vVqttuu03btm274j7atGkjSRowYIBWr16tX375xfS1AAAAuJkRrAIAAJST7777Tp988ol69+4twzB09uxZnT17Vn/7298kSa+++qqtb2pqqvz9/e0CsN9LTU2Vg4ODrFZrudbp5+dXpG38+PGaNm2a+vXrp/fee09ffPGFkpKSdNttt9k9ap6amqratWtfdY1HHnlE58+f18qVKyVJMTExql27tiIiIkoc99tvv8nR0VG+vr527RaLRVarVb/99ltptminbt26kqSjR4+aHitJVapU0dSpU5WYmKitW7eWakxUVJT8/f01adIk0+tVq1bN7tjZ2bnE9uzsbEmyXZvi/nz9/f2Vn5+vtLQ0paWlKT8/v9i/V79vO3XqlAzDUM2aNeXk5GT3+fzzz/Xrr79ecR+dOnXS2rVrlZubq6FDh6p27dpq2rSpVq1adbVLAAAA8IdAsAoAAFBOXn31VRmGobfeektVq1a1fQrf/fnaa68pLy9PkuTr66sTJ04oPz//ivP5+voqLy/vqr8w7+LiYnv36OWuFEIW957RN954Q0OHDtXcuXPVs2dPtW3bVq1bty4SnPn6+urnn38usR5JatiwocLDw/Wvf/1Lx48f1/r16zVmzBg5ODiUOM7Hx0e5ublKTU21azcMQydPnlT16tWvuvbvtW7dWtWqVdO6detkGIbp8ZL00EMPKSAgQNHR0aWaw83NTTNnztQnn3yijRs3lmlNs3x8fCRJKSkpRc6dOHFClSpVsv2dtFgsxf69+n1b9erVZbFYtHPnTiUlJRX5rF27tsSaIiIi9PHHHys9PV3btm1T7dq1df/99xf7Y1oAAAB/NASrAAAA5SAvL0+vvfaaAgMDtXXr1iKfCRMmKCUlxfZ4f3h4uLKzs6/4S/aFfSTppZdeKnHt+vXr6+DBg3ZtW7ZsUUZGRqnrt1gscnFxsWvbuHFjkce3w8PD9e2339oe2S/Jo48+qoMHDyoyMlIODg4aOXLkVcd07dpVUkHQe7m3335bFy5csJ03w8nJSdHR0Tp8+LCeeuqpYvucPn1an3766RXncHZ21pw5c5SUlFTkh8iuZMSIEQoODtbkyZNLDNDLyy233KJatWrpP//5j134e+HCBb399tu644475O7uLg8PD7Vt21bvvPOO7W5XqeCHyd577z27Ofv06SPDMPTLL7+odevWRT7NmjUrVW0uLi4KDQ3V/PnzJUn79u0rhx0DAABULMeKLgAAAODPYNOmTTpx4oTmz5+vsLCwIuebNm2qmJgYvfLKK+rTp48GDhyouLg4jRkzRkeOHFHnzp2Vn5+vL774QsHBwbrvvvvUsWNHDRkyRHPmzNGpU6fUp08fubi4aN++fXJ3d9cjjzwiSRoyZIimTZum6dOnKzQ0VIcOHVJMTIy8vLxKXX+fPn0UHx+vxo0bq3nz5tqzZ4+ee+65Io/9R0VF6c0331RERIQmT56stm3bKisrS9u3b1efPn3UuXNnW9/u3burSZMm2rp1qwYPHqwaNWpctY7u3burZ8+eio6O1rlz53TnnXfq4MGDmjFjhlq0aKEhQ4aUek+Xe/zxx/XNN99oxowZ+vLLL3X//ferTp06Sk9P1yeffKJ///vfmjVrlu68884rzjFw4EAtWLDAFo5fjYODg+bOnat77rlHktS8efMy1V5alSpV0rPPPqtBgwapT58+Gj16tHJycvTcc8/p7Nmzmjdvnq3vU089pV69eql79+6aMGGC8vLyNH/+fHl4eOjMmTO2fnfeeadGjRql4cOHa/fu3erUqZM8PDyUkpKinTt3qlmzZnrooYeKrWf69On6+eef1bVrV9WuXVtnz57V888/LycnJ4WGhl7XawEAAHBDVNzvZgEAAPx59OvXz3B2djZOnz59xT733Xef4ejoaJw8edIwDMPIysoypk+fbgQFBRnOzs6Gj4+P0aVLF+Ozzz6zjcnLyzMWL15sNG3a1HB2dja8vLyMO+64w3jvvfdsfXJycoxJkyYZderUMdzc3IzQ0FBj//79Rr169YzIyEhbv+J+zb5QWlqa8cADDxg1atQw3N3djQ4dOhg7duwwQkNDjdDQ0CJ9H330UaNu3bqGk5OTUaNGDaN3797G4cOHi8w7c+ZMQ5Lx+eefl/ZSGllZWUZ0dLRRr149w8nJyfDz8zMeeughIy0tza5fZGSk4eHhUep5DcMw1q1bZ/Tu3dvw9fU1HB0djapVqxqdO3c2li5dauTk5Nj6STLGjh1bZPzmzZsNSUWu44wZMwxJRmpqapEx7du3NyQZvXv3vmp99erVK7ZfcfUcPXrUkGQ899xzdu1r16412rVrZ7i6uhoeHh5G165djU8//bTInOvXrzeaN29uODs7G3Xr1jXmzZtn28fvvfrqq0a7du0MDw8Pw83NzQgMDDSGDh1q7N6929YnMjLSqFevnu14w4YNRnh4uFGrVi3D2dnZqFGjhnHXXXcZO3bsuOp1AAAA+COwGEYZXzQFAAAAXEXr1q1lsViUlJRU0aUAAAAA5YpXAQAAAKBcnTt3Tl9//bU2bNigPXv26N13363okgAAAIByR7AKAACAcrV371517txZPj4+mjFjhvr161fRJQEAAADljlcBAAAAAAAAAIBJlSq6ANzcPvnkE/Xt21f+/v6yWCxau3at3XnDMDRz5kz5+/vLzc1NYWFhSk5OtuuTk5OjRx55RNWrV5eHh4fuvvtu/fzzzzdyGwAAAAAAAEC5IlhFiS5cuKDbbrtNMTExxZ5/9tlntWjRIsXExCgpKUlWq1Xdu3fX+fPnbX2ioqL07rvvKiEhQTt37lRGRob69OmjvLy8G7UNAAAAAAAAoFzxKgCUmsVi0bvvvmt7T5phGPL391dUVJSio6MlFdydWrNmTc2fP1+jR49Wenq6fH19tWLFCv3jH/+QJJ04cUJ16tTR+++/r549e1bYfgAAAAAAAICy4serUGZHjx7VyZMn1aNHD1ubi4uLQkND9dlnn2n06NHas2ePLl26ZNfH399fTZs21WeffXbFYDUnJ0c5OTm24/z8fJ05c0Y+Pj6yWCzXb1MAAAAAAOAvzzAMnT9/Xv7+/qpUiQe+UTyCVZTZyZMnJUk1a9a0a69Zs6Z+/PFHWx9nZ2dVrVq1SJ/C8cV55plnNGvWrHKuGAAAAAAAoPSOHz+u2rVrV3QZuEkRrOKa/f4OUsMwrnpX6dX6TJkyRePHj7cdp6enq27dujp+/LiqVKlybQUDAAAAwA3yzDPPVHQJAMogJydHixcvVuXKlSu6FNzECFZRZlarVVLBXal+fn629tOnT9vuYrVarbp48aLS0tLs7lo9ffq02rdvf8W5XVxc5OLiUqS9SpUqBKsAAAAA/jBcXV0rugQA14DXEaIkvCQCZRYQECCr1aoPP/zQ1nbx4kVt377dFpq2atVKTk5Odn1SUlL09ddflxisAgAAAAAAADcz7lhFiTIyMvTdd9/Zjo8ePar9+/erWrVqqlu3rqKiojR37lwFBQUpKChIc+fOlbu7u+6//35JkpeXlx544AFNmDBBPj4+qlatmiZOnKhmzZqpW7duFbUtAAAAAAAA4JoQrKJEu3fvVufOnW3Hhe89jYyMVHx8vCZNmqSsrCw9/PDDSktLU7t27bR582a7d5AsXrxYjo6OGjBggLKystS1a1fFx8fLwcHhhu8HAAAAAAAAKA8WwzCMii4CuJpz587Jy8tL6enpV3zHan5+vi5evHiDKwMqlpOTE/8nBQAAwE1s1qxZFV0CgDLIzs7WvHnzSswhAO5YxZ/CxYsXdfToUeXn51d0KcAN5+3tLavVykvVAQAAAAC4gQhW8YdnGIZSUlLk4OCgOnXqqFIlfpMNfw2GYSgzM1OnT5+WJPn5+VVwRQAAAAAA/HUQrOIPLzc3V5mZmfL395e7u3tFlwPcUG5ubpKk06dPq0aNGrwWAAAAAACAG4Rb+/CHl5eXJ0lydnau4EqAilH4fyhcunSpgisBAAAAAOCvg2AVfxq8XxJ/VfzdBwAAAADgxiNYBQAAAAAAAACTCFaBChIWFqaoqKiKLqNYx44dk8Vi0f79+8s0PiwsTBaL5ZrmuN7+CDUCAAAAAICbF8EqgOti5MiRSklJUdOmTSVJBw4c0MCBA1WnTh25ubkpODhYzz///FXnGT16tAIDA+Xm5iZfX19FRETo8OHDpa7jmWeekcViKRJiv/POO/ryyy/NbQoAAAAAAOB/CFaBy6SkSDNnFnz/Ed1MP17k7u4uq9UqR0dHSdKePXvk6+urN954Q8nJyXryySc1ZcoUxcTElDhPq1atFBcXp2+++UYffPCBDMNQjx49bD9aVpKkpCT9+9//VvPmzYucq1atmnx9fcu2OQAAAAAA8JdHsApcJiVFmjWrYoLVxMREeXl56fXXX7e1xcXFKTg4WK6urmrcuLFiY2Nt5wof11+9erXCwsLk6uqqN954Q/Hx8fL29tYHH3yg4OBgeXp6qlevXkr53aZKmvv30tLSNGjQIPn6+srNzU1BQUGKi4sztb8RI0bohRdeUGhoqBo0aKDBgwdr+PDheuedd0ocN2rUKHXq1En169dXy5YtNWfOHB0/flzHjh0rcVxGRoYGDRqk5cuXq2rVqqZqBQAAAAAAuBrHii4AKG+GIWVmlm1sVtb/f1+4YH68u7tUlh9oT0hI0KhRo7RixQpFRERIkpYvX64ZM2YoJiZGLVq00L59+zRy5Eh5eHgoMjLSNjY6OloLFy5UXFycXFxctHnzZmVmZmrBggVasWKFKlWqpMGDB2vixIlauXKlqbkLTZs2TYcOHdKmTZtUvXp1fffdd8oqvFjXID09XdWqVSt1/wsXLiguLk4BAQGqU6dOiX3Hjh2r3r17q1u3bpozZ861lgoAAAAAAGCHYBV/OpmZkqfntc3RoUPZxmVkSB4e5sbExsbqiSee0Lp169S5c2db+1NPPaWFCxfq3nvvlSQFBATo0KFDWrZsmV34GRUVZetT6NKlS1q6dKkCAwMlSePGjdPs2bNNz13op59+UosWLdS6dWtJUv369c1tshi7du3S6tWrtXHjxqv2jY2N1aRJk3ThwgU1btxYH374oZydna/YPyEhQXv37lVSUtI11wkAAAAAAFAcglWgAr399ts6deqUdu7cqbZt29raU1NTdfz4cT3wwAMaOXKkrT03N1deXl52cxSGnZdzd3e3haqS5Ofnp9OnT5ueu9BDDz2k/v37a+/everRo4f69eun9u3bl23TkpKTkxUREaHp06ere/fuV+0/aNAgde/eXSkpKVqwYIEGDBigTz/9VK6urkX6Hj9+XI8++qg2b95c7HkAAAAAAIDyQLCKPx1394I7R0vr5MmCjyTt3y+NGyfFxEghIQVtVmvBp7RrmxESEqK9e/cqLi5Obdq0keV/7xHIz8+XVPDIfrt27ezGODg42B17FHOLrJOTk92xxWKRYRim5y4UHh6uH3/8URs3btRHH32krl27auzYsVqwYEFpt2pz6NAhdenSRSNHjtTUqVNLNcbLy0teXl4KCgrS7bffrqpVq+rdd9/VwIEDi/Tds2ePTp8+rVatWtna8vLy9MknnygmJkY5OTlX3CcAAAAAAEBpEaziT8diMfc4fmBgwUeS3NwKvu+4Q2rZsvxrK7p2oBYuXKiwsDA5ODgoJiZGklSzZk3VqlVLP/zwgwYNGlSua5Z1bl9fXw0bNkzDhg1Tx44d9fjjj5sOVpOTk9WlSxdFRkbq6aefNlu6jWEYysnJKfZc165d9dVXX9m1DR8+XI0bN1Z0dDShKgAAAAAAKBcEq0AFa9SokbZu3aqwsDA5OjpqyZIlkqSZM2fqn//8p6pUqaLw8HDl5ORo9+7dSktL0/jx469pTbNzT58+Xa1atdKtt96qnJwcbdiwQcHBwabWTE5OVufOndWjRw+NHz9eJ/93m7CDg4N8fX2LHfPDDz/ozTffVI8ePeTr66tffvlF8+fPl5ubm+66665ix1SuXFlNmza1a/Pw8JCPj0+RdgAAAAAAgLKqVNEFADcTPz9pxoyC7xvplltu0ZYtW7Rq1SpNmDBBkvTggw/q5ZdfVnx8vJo1a6bQ0FDFx8crICDgmtczO7ezs7OmTJmi5s2bq1OnTnJwcFBCQoKpNdesWaPU1FStXLlSfn5+tk+bNm3s+lksFsXHx0uSXF1dtWPHDt11111q2LChBgwYIA8PD3322WeqUaOGbUxYWJiGDRtmqh4AAAAAAIBrYTEKX7wI3MTOnTsnLy8vpaenq0qVKnbnsrOzdfToUQUEBPBjRTeJsLAwhYSE2O6+La1jx44pKChIhw4dUlBQUKnH1a9fXzNnzjQdrh47dkwBAQHat2+fQgpfqvsHxL8BAACAm9esWbMqugQAZZCdna158+YVm0MAhbhjFcB1ERsbK09PzyLvOy1JYmKiRo0aZSpUPXz4sCpXrqyhQ4eaqi88PFy33nqrqTEAAAAAAACFeMcqgHK3cuVKZWVlSZLq1q1b6nFjxowxvVbjxo1NhbeFXn755TLVCAAAAAAAIBGsArgOatWqVdElXNUfoUYAAAAAAHDz4lUAAAAAAAAAAGASwSoAAAAAAAAAmESwCgAAAAAAAAAmEawCAAAAAAAAgEkEqwAAAAAAAABgEsEqAAAAAAAAAJhEsApUkLCwMEVFRVV0GcU6duyYLBaL9u/fX6bxYWFhslgs1zSHGYVreXt7X/e1AAAAAAAAJIJVANfJyJEjlZKSoqZNm0qSfvvtN/Xq1Uv+/v5ycXFRnTp1NG7cOJ07d65U8xmGofDwcFksFq1du9buXEpKipYsWVLuewAAAAAAALgSglXgMinnUzRz20ylnE+p6FLK5NKlSxVdgo27u7usVqscHR0lSZUqVVJERITWr1+vb7/9VvHx8froo480ZsyYUs23ZMkSWSyWYs9ZrVZ5eXmVW+0AAAAAAABXQ7AKXCYlI0Wzts9SSsaND1YTExPl5eWl119/3dYWFxen4OBgubq6qnHjxoqNjbWdK3xcf/Xq1QoLC5Orq6veeOMNxcfHy9vbWx988IGCg4Pl6empXr16KSXFfk8lzf17aWlpGjRokHx9feXm5qagoCDFxcWZ2l/VqlX10EMPqXXr1qpXr566du2qhx9+WDt27Ljq2AMHDmjRokV69dVXTa0JAAAAAABwvThWdAFAeTMMQ5mXMss0NutSlu37wsULpse7O7lf8a7KkiQkJGjUqFFasWKFIiIiJEnLly/XjBkzFBMToxYtWmjfvn0aOXKkPDw8FBkZaRsbHUtbc7AAACAASURBVB2thQsXKi4uTi4uLtq8ebMyMzO1YMECrVixQpUqVdLgwYM1ceJErVy50tTchaZNm6ZDhw5p06ZNql69ur777jtlZWWZ3uflTpw4oXfeeUehoaEl9svMzNTAgQMVExMjq9V6TWsCAAAAAACUF4JV/OlkXsqU5zOe1zRHh7gOZRqXMSVDHs4epsbExsbqiSee0Lp169S5c2db+1NPPaWFCxfq3nvvlSQFBATo0KFDWrZsmV34GRUVZetT6NKlS1q6dKkCAwMlSePGjdPs2bNNz13op59+UosWLdS6dWtJUv369U3t8XIDBw7UunXrlJWVpb59++rll18usf9jjz2m9u3b2wJnAAAAAACAmwHBKlCB3n77bZ06dUo7d+5U27Ztbe2pqak6fvy4HnjgAY0cOdLWnpubW+RdooVh5+Xc3d1toaok+fn56fTp06bnLvTQQw+pf//+2rt3r3r06KF+/fqpffv2Zdrz4sWLNWPGDB05ckRPPPGExo8ff8XXEKxfv15btmzRvn37yrQWAAAAAADA9UKwij8ddyd3ZUzJKHX/kxkndTLjpCRp/8n9GrdpnGLCYxRiDZEkWT2tsnqW7hF0dyd3U7WGhIRo7969iouLU5s2bWyvEcjPz5dU8Mh+u3bt7MY4ODjYHXt4FL1D1snJye7YYrHIMAzTcxcKDw/Xjz/+qI0bN+qjjz5S165dNXbsWC1YsKC0W7WxWq2yWq1q3LixfHx81LFjR02bNk1+fn5F+m7ZskXff/+9vL297dr79++vjh07atu2babXBwAAAAAAKA8Eq/jTsVgsph7HD6wWqMBqBXd3ujm5SZLuqHOHWvq1vC712a0dGKiFCxcqLCxMDg4OiomJkSTVrFlTtWrV0g8//KBBgwaV65plndvX11fDhg3TsGHD1LFjRz3++ONlClYvVxj25uTkFHt+8uTJevDBB+3amjVrpsWLF6tv377XtDYAAAAAAMC1IFgFKlijRo20detWhYWFydHRUUuWLJEkzZw5U//85z9VpUoVhYeHKycnR7t371ZaWprGjx9/TWuanXv69Olq1aqVbr31VuXk5GjDhg0KDg42teb777+vU6dOqU2bNvL09NShQ4c0adIk3XnnnVd8Z2vh3a2/V7duXQUEBJhaHwAAAAAAoDxVqugCgJuJn6efZoTOkJ9n0cfSr6dbbrlFW7Zs0apVqzRhwgRJ0oMPPqiXX35Z8fHxatasmUJDQxUfH18ugaLZuZ2dnTVlyhQ1b95cnTp1koODgxISEkyt6ebmpuXLl6tDhw4KDg5WVFSU+vTpow0bNtj1s1gsio+PL+vWAAAAAAAAbgiLUfgsLnATO3funLy8vJSenq4qVarYncvOztbRo0cVEBAgV1fXCqoQlwsLC1NISIjt7tvSOnbsmIKCgnTo0CEFBQWZGhsfH6+oqCidPXvW1Lg/A/4NAAAA3LxmzZpV0SUAKIPs7GzNmzev2BwCKMQdqwCui9jYWHl6euqrr74q9ZjExESNGjXKdKjq6empMWPGmC0RAAAAAACgzHjHKoByt3LlSmVlZUkqeB9qaZU1HN2/f78kycHBoUzjAQAAAAAAzCJYBVDuatWqdUPXa9iw4Q1dDwAAAAAAgFcBAAAAAAAAAIBJBKsAAAAAAAAAYBLBKgAAAAAAAACYRLAKAAAAAAAAACYRrAIAAAAAAACASQSrAAAAAAAAAGASwSpQQcLCwhQVFVXRZRTr2LFjslgs2r9/f5nGh4WFyWKxXNMcZhSu5e3tfd3XAgAAAAAAkAhWAVwnI0eOVEpKipo2bSpJOnDggAYOHKg6derIzc1NwcHBev7550s9n2EYCg8Pl8Vi0dq1a+3OpaSkaMmSJeVaPwAAAAAAQEkcK7oA4KaSkiItWyaNHi35+VV0NaZdunRJTk5OFV2GJMnd3V1Wq9V2vGfPHvn6+uqNN95QnTp19Nlnn2nUqFFycHDQuHHjrjrfkiVLZLFYij1ntVrl5eVVbrUDAAAAAABcDXesApdLSZFmzSr4vsESExPl5eWl119/3dYWFxen4OBgubq6qnHjxoqNjbWdK3xcf/Xq1QoLC5Orq6veeOMNxcfHy9vbWx988IGCg4Pl6empXr16KeV3eypp7t9LS0vToEGD5OvrKzc3NwUFBSkuLs7U/kaMGKEXXnhBoaGhatCggQYPHqzhw4frnXfeuerYAwcOaNGiRXr11VdNrQkAAAAAAHC9cMcq/nwMQ8rMLNvYrKz//75wwfx4d3fpCndVliQhIUGjRo3SihUrFBERIUlavny5ZsyYoZiYGLVo0UL79u3TyJEj5eHhocjISNvY6OhoLVy4UHFxcXJxcdHmzZuVmZmpBQsWaMWKFapUqZIGDx6siRMnauXKlabmLjRt2jQdOnRImzZtUvXq1fXdd98pq/BaXYP09HRVq1atxD6ZmZkaOHCgYmJi7O6ABQAAAAAAqEgEq/jzycyUPD2vbY4OHco2LiND8vAwNSQ2NlZPPPGE1q1bp86dO9van3rqKS1cuFD33nuvJCkgIECHDh3SsmXL7MLPqKgoW59Cly5d0tKlSxUYGChJGjdunGbPnm167kI//fSTWrRoodatW0uS6tevb2qPxdm1a5dWr16tjRs3ltjvscceU/v27W2BMwAAAAAAwM2AYBWoQG+//bZOnTqlnTt3qm3btrb21NRUHT9+XA888IBGjhxpa8/NzS3yLtHCsPNy7u7utlBVkvz8/HT69GnTcxd66KGH1L9/f+3du1c9evRQv3791L59+7JtWlJycrIiIiI0ffp0de/e/Yr91q9fry1btmjfvn1lXgsAAAAAAOB6IFjFn4+7e8Gdo6V18mTBR5L275fGjZNiYqSQkII2q7XgU9q1TQgJCdHevXsVFxenNm3a2H6cKT8/X1LBI/vt2rWzG+Pg4GB37FHMHbK//wEri8UiwzBMz10oPDxcP/74ozZu3KiPPvpIXbt21dixY7VgwYLSbtXm0KFD6tKli0aOHKmpU6eW2HfLli36/vvv5e3tbdfev39/dezYUdu2bTO9PgAAAAAAQHkgWMWfj8Vi7nH8wMCCjyS5uRV833GH1LJl+ddWZOlALVy4UGFhYXJwcFBMTIwkqWbNmqpVq5Z++OEHDRo0qFzXLOvcvr6+GjZsmIYNG6aOHTvq8ccfNx2sJicnq0uXLoqMjNTTTz991f6TJ0/Wgw8+aNfWrFkzLV68WH379jW1NgAAAAAAQHkiWAUqWKNGjbR161aFhYXJ0dFRS5YskSTNnDlT//znP1WlShWFh4crJydHu3fvVlpamsaPH39Na5qde/r06WrVqpVuvfVW5eTkaMOGDQoODja1ZnJysjp37qwePXpo/PjxOvm/u4QdHBzk6+tb7Bir1VrsD1bVrVtXAQEBptYHAAAAAAAoT5UqugDgpuLnJ82YUfB9A91yyy3asmWLVq1apQkTJkiSHnzwQb388suKj49Xs2bNFBoaqvj4+HIJFM3O7ezsrClTpqh58+bq1KmTHBwclJCQYGrNNWvWKDU1VStXrpSfn5/t06ZNG7t+FotF8fHxZd0aAAAAAADADWExCl+8CNzEzp07Jy8vL6Wnp6tKlSp257Kzs3X06FEFBATI1dW1girE5cLCwhQSEmK7+7a0jh07pqCgIB06dEhBQUGmxsbHxysqKkpnz541Ne7PgH8DAAAAN69Zs2ZVdAkAyiA7O1vz5s0rNocACnHHKoDrIjY2Vp6envrqq69KPSYxMVGjRo0yHap6enpqzJgxZksEAAAAAAAoM96xCqDcrVy5UllZWZIK3odaWmUNR/fv3y+p4H2tAAAAAAAANwLBKoByV6tWrRu6XsOGDW/oegAAAAAAALwKAAAAAAAAAABMIlgFAAAAAAAAAJMIVgEAAAAAAADAJIJVAAAAAAAAADCJYBUAAAAAAAAATCJYBQAAAAAAAACTCFYBXNHhw4dlsVh0+PDhii6lWJMnT9btt99eprGFe7NYLGWe43r7I9QIAAAAAMBfFcEqUEGGDRtmC80sFot8fHzUq1cvHTx40K7f5X0u/yQkJEiStm3bVmSeLl266NNPP7XNUbt27SvOY7FY1K1btxu695vJjh079P7779uOY2Nj1b59e3l7e6tatWrq2bOn9u7dW+IcX3/9tcLCwlSjRg25uroqMDBQM2fOVF5eXqlqyMrKUpMmTYqE2EFBQUpJSdG4cePKtjkAAAAAAHDdEKwCl9m9W+rSpeD7RujVq5dSUlKUkpKijz/+WI6OjurTp0+RfnFxcbZ+hZ9+/frZ9Tly5IhSUlK0bds2+fr6qnfv3jp9+rQkad++fbZxq1evliR9//33trY1a9Zc/83+z8WLF2/YWqVRvXp1VatWzXa8bds2DR06VNu3b9fOnTvl6+ur7t2769SpU1ecw9nZWcOHD9dHH32kI0eOaMGCBYqJidHTTz9dqhqioqJUv379Iu0ODg6yWq3y8PAwvS8AAAAAAHB9EawCl3n9dWnrVmnFihuznouLi6xWq6xWq0JCQhQdHa3jx48rNTXVrp+3t7etX+HH1dXVrk+NGjVktVrVrFkzTZ06Venp6friiy8kSb6+vrZxVatWtet/edvV5ObmaujQoWrSpIl++eUXSdKZM2c0YsQIVa9eXV5eXurevbuSk5NtYwof11+6dKnq168vLy8vSdLtt9+uiRMn6rHHHpO3t7f8/f31zDPP2K13tbl/78MPP1Tr1q3l7u6uqlWrqmPHjjpx4kSp9lZo9erVGjNmjG677TY1adJEcXFxyszM1Pbt2684plGjRoqMjFTz5s1Vr1493XPPPRowYIB27Nhx1fXWrl2rXbt2Fdk7AAAAAAC4uTlWdAFAeTMMKTOz9P1/+kn67TfJYpH+93S9Vq2SBgwomMvHR6pbt3RzubsXzFMWGRkZWrlypRo2bCgfH5+yTSIpMzNTcXFxkiQnJ6cyz/N72dnZGjBggFJSUrRjxw75+PgoLy9PvXr1Up06dbR582Z5enrqxRdfVNeuXfXtt9+qSpUqkqTk5GRt3LhR69atk+WyC7R8+XJNnjxZSUlJ2r59u0aOHKkOHTqoY8eOpZ778vruueceRUVFafXq1crOztbnn39+zfvOyMhQbm6u3V2tV3PkyBF9+OGHioyMLLHfL7/8oocffliJiYlydna+1lIBAAAAAMANRLCKP53MTMnT89rmSE2VOnQwPy4jQzLz1PaGDRvk+b9iL1y4ID8/P23YsEGVKtnfTD5w4EA5ODjYtR08eFANGjSwHdeuXVtSQbBqGIZatWqlrl27mt9EMc6dO6eePXvKwcFBW7ZsUeXKlSVJH3zwgX744Qd9+umnthD3hRde0Nq1a7V27VoNHTpUkpSXl6cVK1bI29vbbt62bdtqypQpkgreJ/rCCy/o448/VseOHUs9d6EzZ87owoUL6tu3r+26NGnS5Jr3/vjjjysoKEihoaFX7duqVSslJycrJydHjzzyiJ588skr9s3Pz9eQIUM0fvx4NW/e/Kb9gTAAAAAAAFA8glWgAnXu3FkvvfSSpIJgMDY2VuHh4fryyy9Vr149W7/FixcX+YGpOnXq2B3v2LFDHh4e2rdvn6KjoxUfH2/qjtVhw4bprbfekiS5urrq119/tZ3r37+/GjRooE2bNsnFxcXWvmfPHqWlpRV5lUBWVpa+//5723FgYGCRUFWSmjdvbnfs5+dney9saecu5O/vr/vuu0+dO3dW9+7d1a1bNw0YMEA1a9Ys7SUoYvbs2Vq3bp0++eSTUl3Ld999VxkZGdq7d68ef/xxBQYG6tFHHy2274IFCyRJEyZMKHN9AAAAAACg4hCs4k/H3b3gzlEz9u8v/g7VnTulkBBza5vh4eGhhg0b2o5btWolLy8vLV++XHPmzLG1W61Wu37FCQgIkLe3txo1amR7LP7rr7+2C0JLMn/+fE2dOlWSitwx27t3b61cuVJJSUnqcNmFys/PV/369fXBBx8Ume/yQPRKP770+7DSYrEoPz/f1NyXW7Vqlfbs2aPExES98cYbmjp1qrZu3aqWLVsW278kc+bM0fPPP68tW7YoODi4VGPq/u+dEU2aNFF2drYmTpx4xWB1y5Yt2r59e5Fr0LRpUz3wwANatmyZ6ZoBAAAAAMCNQ7CKPx2Lxdzj+JLk5lbwXamSlJ///99ububnuhYWi0WVKlVSVlbWNc0zZMgQzZ49W7GxsXrsscdKNaZmzZpXvLszKipKDRs21F133aXExES1b99ektSyZUvNnTtXbm5uqlWr1jXV/HtlnbtVq1Zq1aqVnnzySbVo0UIJCQmmg9WnnnpKixYt0kcffaTbbrvNbOmSJMMwlJOTI8Mw7N4rW2jZsmU6f/687fjo0aO6++679e6776pVq1ZlWhMAAAAAANw4BKuApBo1JKtVqlNHeuAB6ZVXpOPHC9qvp5ycHJ08eVKSlJaWppiYGGVkZKhv3752/c6ePWvrV6hy5cpXvBO0UqVKioqK0pw5czR69Gi5m72VthgTJ05UXl6ewsPDtXnzZrVr10533XWXQkJCFBERoXnz5ikwMFAnTpzQhg0bNHDgwCKP+pthdu4jR45oxYoV6tOnj/z9/ZWcnKyjR4+W+m7TQrNnz9bcuXO1Zs0a1apVy3bdS7rer732mjw8PNS0aVM5OTkpKSlJ06ZN06BBg4oNVSXZvepBkhwdC/7jOCgoSP7+/qZqBgAAAAAAN16lq3cB/vxq15aOHZO++EIaPbrg+9ixgvbrKTExUX5+fvLz81O7du2UlJSkNWvWKCwszK7f8OHDbf0KPy+++GKJc48YMUKXLl1STExMudUbHR2t6Oho9ezZU0lJSXJwcNDmzZvVtm1bDRkyRI0bN9b999+vEydOyNfX95rWMju3p6enDh48qHvuuUdBQUEaO3asJk6cqGHDhplaNzY2Vjk5Obr77ruveL2XLl0qV1dXu1qffvpptWnTRiEhIXr66ac1YcIExcbG2vocPnxYFotFn3/+ufmLAQAAAAAAbjoWwzCMii4CuJpz587Jy8tL6enpqlKlit257OxsHT16VAEBAXZhF1CSw4cPKzg4WN98840aN25sauzkyZO1f/9+JSYmlnpMYmKihg4dqu+//16VK1c2vd62bduuGMrybwAAAODmNWvWrIouAUAZZGdna968ecXmEEAh7lgF8JfWqlUrdenSxdSYzZs3a/78+abGJCYmatq0aaZC1W+//Vaenp5atGiRqbUAAAAAAMD1xztWAfwlBQYG6r///a8kmb7Lc+/evabXW7JkiekxAQEB2r9/vyTzNQIAAAAAgOuLYBXAX5KTk5MaNmxY0WWU6I9QIwAAAAAAf1W8CgAAAAAAAAAATCJYBQAAAAAAAACTCFYBAAAAAAAAwCSCVQAAAAAAAAAwiWAVAAAAAAAAAEwiWAUAAAAAAAAAkwhWAVzR4cOHZbFYdPjw4YoupViTJ0/W7bffXqaxhXuzWCxlnsOMpUuX2tabPHnydV8PAAAAAABcXwSrQAUZNmyYLWizWCzy8fFRr169dPDgQbt+l/e5/JOQkCBJ2rZtW5F5unTpok8//dQ2R+3ata84j8ViUbdu3W7o3m8mO3bs0Pvvv287TkhIUMuWLeXt7S1PT0+1bNnSdq1L45tvvpG7u7usVqtde2RkpFJSUtSyZctyqx0AAAAAAFQcglVck9zcXE2dOlUBAQFyc3NTgwYNNHv2bOXn59v6GIahmTNnyt/fX25ubgoLC1NycnIFVn1lu0/sVpfXumj3id03ZL1evXopJSVFKSkp+vjjj+Xo6Kg+ffoU6RcXF2frV/jp16+fXZ8jR44oJSVF27Ztk6+vr3r37q3Tp09Lkvbt22cbt3r1aknS999/b2tbs2bN9d/s/1y8ePGGrVUa1atXV7Vq1WzHvr6+mjFjhj7//HMdOHBA999/vwYPHqzt27dfda6cnBwNHDhQYWFhRc65ubnJarXKycmpPMsHAAAAAAAVhGAV12T+/PlaunSpYmJi9M033+jZZ5/Vc889pxdffNHW59lnn9WiRYsUExOjpKQkWa1Wde/eXefPn6/Ayov3+oHXtfXYVq04sOKGrOfi4iKr1Sqr1aqQkBBFR0fr+PHjSk1Ntevn7e1t61f4cXV1tetTo0YNWa1WNWvWTFOnTlV6erq++OILSQVhYeG4qlWr2vW/vO1qcnNzNXToUDVp0kS//PKLJOnMmTMaMWKEqlevLi8vL3Xv3t0uOC98XH/p0qWqX7++vLy8JEm33367Jk6cqMcee0ze3t7y9/fXM888Y7fe1eb+vQ8//FCtW7eWu7u7qlatqo4dO+rEiROl2luhrl27KiIiQo0bN1ZgYKAmTpyoRo0aaefOnVcdO2nSJLVp00Z33323qTUBAAAAAMAfj2NFF4A/tl27dikiIkK9e/eWJNWvX1+rVq3S7t0Fd3wahqElS5boySef1L333itJeu2111SzZk395z//0ejRo8u9JsMwlHkps9T9f0r/Sb9l/lbweP3XBY98r/p6lQbcOkCGYcjH3Ud1veqWai53J3dZLJYy1Z2RkaGVK1eqYcOG8vHxKdMckpSZmam4uDhJKte7I7OzszVgwAClpKRox44d8vHxUV5ennr16qU6depo8+bN8vT01IsvvqiuXbvq22+/VZUqVSRJycnJ2rhxo9atW2d3fZYvX67JkycrKSlJ27dv18iRI9WhQwd17Nix1HNfXt8999yjqKgorV69WtnZ2fr888+vac/5+fnavHmzjh49qo4dO5bYd9OmTdq0aZP27dunFStuTDAPAAAAAAAqDsEqrkmHDh20dOlSffvtt2rUqJEOHDignTt3asmSJZKko0eP6uTJk+rRo4dtjIuLi0JDQ/XZZ59dl2A181KmPJ/xvKY5UjNT1SGug+lxGVMy5OHsUer+GzZskKdnQa0XLlyQn5+fNmzYoEqV7G8mHzhwoBwcHOzaDh48qAYNGtiOa9euLakgWDUMQ61atVLXrl1N76E4586dU8+ePeXg4KAtW7aocuXKkqQPPvhAP/zwgz799FNbiPvCCy9o7dq1Wrt2rYYOHSpJysvL04oVK+Tt7W03b9u2bTVlyhRJUlBQkF544QV9/PHH6tixY6nnLnTmzBlduHBBffv2tV2XJk2alGm/p0+fVoMGDZSTkyMnJyctX75cnTp1umL/U6dO6cEHH9Tbb78tD4/S//kDAAAAAIA/LoJVXJPo6Gilp6ercePGcnBwUF5enp5++mkNHDhQknTy5ElJUs2aNe3G1axZUz/++OMV583JyVFOTo7t+Ny5c9eh+orXuXNnvfTSS5IKgsHY2FiFh4fryy+/VL169Wz9Fi9eXOQHpurUqWN3vGPHDnl4eGjfvn2Kjo5WfHy8qTtWhw0bprfeekuS5Orqql9//dV2rn///mrQoIE2bdokFxcXW/uePXuUlpZW5FUCWVn/x96dx8dV3/f+f82umdFq7bJlW97wwmYbYi4htSGhBAL0kvsIv0AvBEgo96a5vU4uCdDQCybUmPSWJikhAS6PpCGEhJCbpKXFmATsQGiDwYCDvIBtyausxRptsy/n98fRjGakGUmjxVr8fvI4nDMzZ5vxJr31+X6+QQ4ePJh6vHjx4iGhKsC5556b8bi2tjbVF3a0506qq6vjs5/9LJdeeimXX345n/jEJ7j++uuH/N4bjfLyct599116e3t56aWX+NKXvsSiRYu4+OKLs+5/6623cvvtt3PRRRflfS0RERERERERmZkUrMq4/OxnP+PHP/4xP/nJT1i1ahXvvvsuGzdupK6ujs997nOp/QYPjzcMY9gh8w899BCbNm0a0z15HB767unL65h3T76btUL19Vtf5/ya8/O6dj68Xi9LlixJPV67di0lJSU8+eSTPPjgg6nna2pqMvbLpqGhgdLSUpYtW5YaFv/+++9nBKHDefjhh7n33nsBhlTMfupTn+KZZ55h586dXHLJwOeUSCRYuHAhL7300pDzpQeiuao4Bwe/FoslNfHZaM+d7tlnn+Xtt99m69at/PjHP+bee+/l1VdfZc2aNVn3z8Vms6U+79WrV/P+++/z8MMP8+tf/zrr/q+88grbtm1L/ZoZhkEikcBut/OjH/2IG2+8Ma/ri4iIiIiIiMj0p2BVxuWrX/0qd999N5/97GcBOOecczh8+DAPPfQQn/vc56ipqQHMytXa2trUcW1tbcNWEt5zzz185StfST3u6ekZUqGZi8ViyWs4PoDb4QbAipUEidTa7XDnfa7xsFgsWK1WgsHguM5z00038cADD/DYY4/x5S9/eVTHVFdX5/w12bhxI0uWLOGqq65i69atqcrNNWvWsHnzZtxuN3Pnzh3XPQ821nOvXbuWtWvX8vWvf53Vq1fz05/+NO9gdTDDMDIqqAfbtWtXKhAGeO6553jsscfYvn37qH/fioiIiIiIiMjMomBVxiUQCAypbrTZbKmQqaGhgZqaGl5++WVWr14NQCQSYceOHTz88MM5z+tyuUZdaTkRqrxV1BTWUF9cz+dXf56n3nmKoz1HqfJWTep1w+Fwql2Cz+fj0Ucfpa+vj2uuuSZjv66urtR+SUVFRTkrQa1WKxs3buTBBx/kjjvuwOPJr5I2mzvvvJN4PM6VV17Jtm3bWLduHVdddRXnn38+f/Znf8aWLVtYvHgxJ06c4IUXXuCGG24YMtQ/H/mee//+/Tz99NNcffXV1NXV0djYSFNTEytWrMjrut/4xje4+OKLWbRoEaFQiH/5l3/hZz/7GT/84Q9zHjO4l+vrr7+O3W7n7LPPzuvaIiIiIiIiIjJzKFiVcbnmmmv427/9W+bPn8+qVat45513eOSRR7jtttsAswJz48aNbN68maVLl7J06VI2b96Mx+OZVsOj5xXPo/l/NuO0ObFYLPzF2r8gynx11wAAIABJREFUEo/gsk9uuLt169ZUJW9RURHLly/n5z//ORs2bMjY79Zbbx1y7EMPPcTdd9+d89y33XYb9913H48++ihf+9rXJuR+77rrLuLxOFdccQUvv/wyF154Idu2beOee+7hpptuorOzk5qaGjZs2EBlZeW4rmWz2fI6d2FhIbt37+app56is7OTuXPncuedd3LLLbfkdd3e3l7uuOMOjh07htfrZcWKFTz33HN8+tOfTu3z/e9/n40bNxIKhcb1HkVERERERERk5rIYhmFM9U3IzNXb28vf/M3f8Mtf/pK2tjbq6uq44YYb+N//+3/jdDoBcxj1pk2bePzxx/H5fKxbt47vfve7eVXz9fT0UFJSQnd3N8XFxRmvhUIhmpqaaGhooKCgYELfn8xe+/btY8WKFezdu5fly5fndezdd9/Nu+++y9atW/O+7kUXXcSGDRvYsmVL3sfmoj8DIiIiItPXWOeOEJGpFQqF2LJlS9YcQiTJOvIuIrkVFRXxrW99i8OHD6dma3/wwQdToSqYVav3338/LS0thEIhduzYoSHSMm2sXbuWyy67LK9jtm3bNmwri2yeeuopCgsL2blzZ17HiYiIiIiIiMj0pFYAInJGWrx4MR9++CFA3lWeu3btyvt6n/nMZ1i/fj0AZWVleR8vIiIiIiIiItOLglUROSM5HA6WLFly2q5XXFys4SMiIiIiIiIis4haAYiIiIiIiIiIiIjkScGqiIiIiIiIiIiISJ4UrIqIiIiIiIiIiIjkScGqiIiIiIiIiIiISJ4UrIqIiIiIiIiIiIjkScGqiIiIiIiIiIiISJ4UrIpITvv27cNisbBv376pvpWs7r77bi666KIxHZt8bxaLZcznyMf3v//91PXuvvvuSb+eiIiIiIiIiEwuBasiU+SWW25JBW0Wi4Xy8nI++clPsnv37oz90vdJX376058CsH379iHnueyyy/j973+fOse8efNynsdisfCJT3zitL736eS1117j3/7t31KPH3vsMS6++GJKS0uZM2cOV1xxBbt27Rr1+fbu3YvH46Gmpibj+c997nO0tLSwZs2aCbt3EREREREREZk6ClZF0r31Flx2mbk+DT75yU/S0tJCS0sLv/3tb7Hb7Vx99dVD9vvBD36Q2i+5/Of//J8z9tm/fz8tLS1s376dyspKPvWpT9HW1gbAO++8kzruueeeA+DgwYOp537+859P/pvtF4lETtu1RqOiooI5c+akHm/fvp2bb76ZHTt28Prrr1NZWcnll19Oa2vriOcKh8PccMMNbNiwYchrbrebmpoaHA7HRN6+iIiIiIiIiEwRBasi6X70I3j1VXj66dNyOZfLRU1NDTU1NZx//vncddddHD16lPb29oz9SktLU/sll4KCgox9qqqqqKmp4ZxzzuHee++lu7ubP/zhDwBUVlamjisrK8vYP/25kcRiMW6++WZWrlzJ8ePHAejs7OS2226joqKCkpISLr/8chobG1PHJIfrf//732fhwoWUlJQAcNFFF3HnnXfy5S9/mdLSUurq6njooYcyrjfSuQd7+eWXueCCC/B4PJSVlfGxj32MEydOjOq9JT333HP8t//23zjvvPNYuXIlP/jBDwgEAuzYsWPEY7/2ta9x4YUXcu211+Z1TRERERERERGZeexTfQMiE84wIBAY/f5HjsCpU2CxQP/wep59Fq6/3jxXeTnMnz+6c3k85nnGoK+vj2eeeYYlS5ZQXl4+pnMABAIBfvCDHwBMaHVkKBTi+uuvp6Wlhddee43y8nLi8Tif/OQnqa+vZ9u2bRQWFvKP//iPfPzjH+eDDz6guLgYgMbGRv71X/+VX//611jSPp8nn3ySu+++m507d7Jjxw5uv/12LrnkEj72sY+N+tzp93fdddexceNGnnvuOUKhEP/xH/8x7vfd19dHLBbLqGrN5sUXX+TFF1/knXfe4enTFMyLiIiIiIiIyNRRsCqzTyAAhYXjO0d7O1xySf7H9fWB1zvq3V944QUK++/V7/dTW1vLCy+8gNWaWUx+ww03YLPZMp7bvXs3ixYtSj2eN28eYAarhmGwdu1aPv7xj+f/HrLo6enhiiuuwGaz8corr1BUVATASy+9xKFDh/j973+fCnG/853v8Ktf/Ypf/epX3HzzzQDE43GefvppSktLM877kY98hHvuuQeApUuX8p3vfIff/va3fOxjHxv1uZM6Ozvx+/1cc801qc9l5cqV437vX/3qV1m6dCnr16/PuU9raytf+MIX+MUvfoE3j19/EREREREREZm5FKyKTKFLL72U733ve4AZDD722GNceeWVvPnmmyxYsCC13z/8wz8MmWCqvr4+4/Frr72G1+vlnXfe4a677uKHP/xhXhWrt9xyC88//zwABQUFdHR0pF77L//lv7Bo0SJefPFFXC5X6vm3334bn883pJVAMBjk4MGDqceLFy8eEqoCnHvuuRmPa2trU31hR3vupLq6Oj772c9y6aWXcvnll/OJT3yC66+/nurq6tF+BEM88MAD/PrXv+Z3v/vdsJ/lrbfeyu23385FF1005muJiIiIiIiIyMyiYFVmH4/HrBzNx7vvZq9Qff11OP/8/K6dB6/Xy5IlS1KP165dS0lJCU8++SQPPvhg6vmampqM/bJpaGigtLSUZcuWpYbFv//++xlB6HAefvhh7r33XoAhFbOf+tSneOaZZ9i5cyeXpH1OiUSChQsX8tJLLw05X3ogmquKc3BYabFYSCQSeZ073bPPPsvbb7/N1q1b+fGPf8y9997Lq6++ypo1a7LuP5wHH3yQb3/727zyyiusWLFi2H1feeUVtm3blvo1MwyDRCKB3W7nRz/6ETfeeGPe1xcRERERERGR6U3Bqsw+Fktew/EBcLvNtdUKicTA2u3O/1zjYLFYsFqtBIPBcZ3npptu4oEHHuCxxx7jy1/+8qiOqa6uzlnduXHjRpYsWcJVV13F1q1bufjiiwFYs2YNmzdvxu12M3fu3HHd82BjPffatWtZu3YtX//611m9ejU//elP8w5Wv/GNb/DII4/wm9/8hvPOO2/E/Xft2pUKhMGcAOuxxx5j+/btQyqLRURERERERGR2ULAqAlBVBTU1UF8Pn/88PPUUHD1qPj+JwuEwJ0+eBMDn8/Hoo4/S19fHNddck7FfV1dXar+koqKinJWgVquVjRs38uCDD3LHHXfgybOSNps777yTeDzOlVdeybZt21i3bh1XXXUV559/Pn/2Z3/Gli1bWLx4MSdOnOCFF17ghhtuGDLUPx/5nnv//v08/fTTXH311dTV1dHY2EhTU9OI1aaDPfDAA2zevJmf//znzJ07N/W5D/d5D+7l+vrrr2O32zn77LPzuraIiIiIiIiIzBzWkXcROQPMmwfNzfCHP8Add5jr5mbz+Um0detWamtrqa2tZd26dezcuZOf//znbNiwIWO/W2+9NbVfcvnHf/zHYc992223EY1GefTRRyfsfu+66y7uuusurrjiCnbu3InNZmPbtm185CMf4aabbmL58uXceOONnDhxgsrKynFdK99zFxYWsnv3bq677jqWLl3KX/7lX3LnnXdyyy235HXdxx57jHA4zLXXXpvz8/7+979PQUHBuN6fiIiIiIiIiMxsFsMwjKm+CZGR9PT0UFJSQnd3N8XFxRmvhUIhmpqaaGhoUNglo7Zv3z5WrFjB3r17Wb58eV7H3n333bz77rts3bo17+tedNFFbNiwgS1btuR9bC76MyAiIiIyfW3atGmqb0FExiAUCrFly5asOYRIkipWReSMtnbtWi677LK8jtm2bRsPP/xwXsc89dRTFBYWsnPnzryOExEREREREZHpST1WReSMtHjxYj788EOAvKs8d+3alff1PvOZz7B+/XoAysrK8j5eRERERERERKYXBasickZyOBwsWbLktF2vuLhYw0dEREREREREZhG1AhAREREREZHpqaUF7r/fXIuIiEwzClZl1tA8bHKm0u99ERERmbVaWmDTJgWrIiIyLSlYlRnPZrMBEIlEpvhORKZGIBAAzPYGIiIiIrNGIgHR6FTfhYiISE7qsSoznt1ux+Px0N7ejsPhwGrVzwvkzGAYBoFAgLa2NkpLS1M/ZBAREREZkWFALAaRCITD5jq5pD/Od3sijg+FzHU8PnC/110HS5fC3LmwciWsXg2LFsH8+eB0Tt3nKCIiZzQFqzLjWSwWamtraWpq4vDhw1N9OyKnXWlpKTU1NVN9GyIiIpIukZi6YHK0+82kdkJHjpjLYFYr1NebIevgpaEBKirAYjn99ysiImcEBasyKzidTpYuXap2AHLGcTgcqlSV2a+lBR5/HO64A2prp/puRE4v/f7PzjDMIeJTGUyOdHx6teVM4XKZ1Z/J9Wi3J/qY7m7w+cDhgPffh40b4UtfMvc5fhw6OuDECTh0yKxuPXzYXF59deh7KizMHrouWgQLFkBBwen/nEVEZNZQsCqzhtVqpUBfGImIzD7JiUuuvVbBkpx5pur3fzw+9cHkSNszjd0+9YHlcNs22/Ss7CwrM9e33gpr1mS+Zhhw8qQZsDY1mev05fhx6OuD3bvNZTCLBerqcgev1dXT8zMREZFpQ8GqiIiIyHSSHJqbbT3ca/nsM93PNxvew0Sd78ABc/uVV+CDDyYvzBx8rplWbWmx5FdteToDS6fTrLzUPAATz2Ixf+BQWwsf/ejQ10MhaG4eCFoHh699fWb4evw4vPba0OPd7sy2AoPbDHg8k/4WRURkelOwKiIiItNHLGYGSb/7Hbz1lrm9d6/52uWXmwGFYZiVVVbrzA7MBu8jMpyvfnVqr+9wTH74OJ5j7Pq2ZtaqrYX77htbxXZBASxfbi6DGYbZUmBwlWsygD16FIJBaGw0l2xqanL3dq2rU5guInIGsBiGvpqX6a+np4eSkhK6u7spLi6e6tsREZHxMgw4dgz++Eezf15yvXevWTkn01tyaGy29XCv5bPPdD/fZF6zpcUc3pzLsmVw3nmnb0i5w6Hh0HLmiUTMybKyBa+HDpl9YIfjcsHChbBoEW92dOArK0stXWVlRFyu0/I2RGTsQqEQW7ZsUQ4hw9KPdkVERGRydXZmhqfJda5vSr1eWLrUnFRk8WJa+1qpfuIZWv7qNmovvNTcp7Iyc6bn6RCGTadrTtb55PRoaTEXgF274Pbb4cknB/pLJoc+i5wBWnpbePztx7lj7R3UFp3G3/dOJyxZYi7Z+Hy5Q9fDh80fEu7fD/v385Esh/s9noygNT147SkuxlC1q4jIjKBgVURERCZGIGBWnA4OUE+cyL6/3Q5nnQVnnw3nnGMuZ59tVvikfUPZ+m8/pPqJZ/BddSm1V/zX0/NeRKZSWnDa3g6VQHv9GioHT9wjcgbY3dzCph2b+E/l11J7zjT6gUJZGaxday6DxWJmK4H+nq6v/dM/UebzpRZPMIg3EMAbCDDv+PEhh8etVrpKS83QtX+dvoTd7tPwBkVEZDQUrIqIiEh+kn1Qk+FpMkA9cCB3v9CFCwcC1OT6rLPMiqB+/oiffR37aPzj6/zh2B/Y3bqbQ75DVH9wgl3Af/1/N7H7D7fgsDlw2924HW5cNhcF9gJcdhcumwuXvf/x4O0srw0+drjzZNvXZrWdlo9bzmwdHWawmlyLnGk62jPXM4LdbvZZbWiAyy7jlUHhqSsUojQtaC3r6sp4bEskKO/spLyzM+vpgwUFQ8LWZOVrd0kJCZv+fRIROV0UrIqIiEh2yT6og4fxD9cHtaIis/r0nHNg5UpI60sViAbY276Xxr0/ZU/7HhrbG2lsa6S5qxmDocFsogjuXw8tRRA34sRjcUKxEL6Qb7Le+ajYLLZRhbJZA9oJCneT23arHYuG6s9K0Ypa7uc+Pl0xOZV6g+dYG257tPvNlGNmyn1Op/eWSBjEiRJLRIkaEeJGlJgRJZaIEDOi/Y+HbseIEE+Y+8bJfD3O0G1/opMw3cSJcSp0Ehzwt//+N/z68CLKi70sqa5jUXk9Ra4iipxFQ9bT/Qdf4YICWmtrac3S0sOSSFDU25tR4Zoeuhb6/bhDIdwtLdQlW4akSVgsdJeUZG0x4CsrI+h2q7WLiMgEUrAqIiIi+fdB9XjM4HTwMP7q6tQugWjArEBt+rUZnrY3sqd9D02+pqwBKkClp5JVVatYWLKQmsIaFpUtojfSy/8q+l88csUjLC9fTiQeobSglGJXMaFYiHA8TDgWztgOx/sf92/nfD3PYxNGInWvcSNOIBogEA1M6C/FWFiwjC+gzfHaqELiQfs6rA6FvP0SCfD7oacHenvN9Wi229uhqwv6+qAzCv4N8NCNYA8NhFzJj3isYZlMFQOsMbBFwBYFa3Ritm2R/scTtZ3rerHT/5E5zNXe2L+x90j/c+8Pf4jT4sbrMIPWUncRJQVp4WuWIDZ9XewqznjO4/Cc1r/TDKuVnpISekpKOLxw4ZDXHeEwpV1dGcFrKoDt6sIRi1HW1UVZV5fZimCQsNOZtdrVV1ZGd2kpcbsiAhGRfOhvTRERkTNJMAh79gwdxj/aPqjJdVof1FSAenIbe/64JxWijiZAXVmxklVVq1hVuYqVlSup9A4d7LyrZRcA6xesZ03t1PaYjCViowts8wl3swS9Ix0bioWIG/HUfRkYBGNBgrHgFH46AyYy3B1rFW9ynW8gYhjmH5N8gtBc2319ExBi1rbAhk1E9l9LpHMa9ZecQIPnUss1t5rFYv5et1jjWOxmAGixDwR/lvRg0B7FMih0tNiiGMl9rf3b6c/3h4uGdVCoaI1iZGxnPmdYo0OeN6yZzxvWKIalP7ycZSwJB1bDgdVwYjEGtq04+h87+59zYKV/m7TnGXjd1r/ddipMZ08Y4nYobIMVv4KDl0HUC44AWOPmr4erF5y9A2t7BICIESQSCeKLtHGkd3zvz2qxUugsHD6QHSGs9eHDiRMXLuzj/BY86nLRXl1Ne9oPMlMSCQr9/pzVrsW9vbgiEWpaW6lpbR1yuAH0FBfnnFTL7/Wq2lVEZBAFqyIiIrPR4D6oyfXBg2YZXTbZ+qAuWwYuFwDBaNAMUNvfoPGVJ1MVqId8h3IGqBWeClZVmsHpqiozPF1VuSprgDoT2K12Cp2FFDoLp/pWiCfiY6rWHXHfeP7BcDSRGRaF4+br5OgYcTrZLU7suLAZLmxGAZaEC0vcBfECiLlIRF0kIi7i4QJiYRexkAsj6oJYAcRdEBu0He9/nNrOsa/VBV7zsdVwUexxUVJspbgYiorM7hi5tmMxiEbB64U/HIEngS/+Jfzp2eZ7qq4eKA4fTRg5eDthxIkaEXM4d/8Q7vTtuBElEh/0fP8w7kh8+O1IInneKNF4xFwPsx2JR4jGc29Hkvumbc82dqsdh9WB0+bEYXPk3HbanDisjtzbE3GOPLcnqw1JS4u5APzyP3bxYPuvuPeiv+O6i9ZgGOagCYsFWlszlxPHIpzo6OWkr5e27l5O9fYQsQwKX0exthT0Yjh6wWKQMBL0hHvoCffAOENaACtWXLhSQWtyne250aytWNNObqWvqIi+oiKOzp8/5Nr2aJSSHNWuZT4fzmiUkp4eSnp6WHj48JDjIw7H0NA1OclWWRkxh2P8H5CIyAyjYFVERGQmG08f1PQQddWqVB/UgQD1PRpf+wl7OvbQ2NY4qgA1GZwmq1AnIkCtLazlvvX3UVs4O6v1xspmteGxevA4PFN9KySMREYAO9pwNxAJ0+MP0xMI0RMI0xcM0xcK4w+FCETM10PRzHNFjBCxRJgY5pKwhEhYw2ALg71/SRMzIsSIAL1gAWz9y+n8fIAuwG91cGoU1beGYWAYBg6bg5aKXuiE3xf9FU19xcQSMex9dmxNthFDyVzbuf4cz1Q2iy0j7BspXBxxeyLOMcqAUq0zsqutNReAvV1AOyxfDmsGDVpYvnzwkU6gvH8x/4ns7R0awGYshwe2/X7zLEby/47AsAGs1d2Lt6wXd2kPzqJe7N5erAXm63F7L1FLLyGjl56Qj5jF/KFAggTB/v8mggPH6INYhxNXpQtnpRMX1biYP/Ca4aDUH82YUCu94rWkuxtnNEp1WxvVbW1Z76W3sDDnpFq9hYWpkS4iIrOJxTDUZUmmv56eHkpKSuju7qY4bQIUEZEzSrIP6uBh/KPtg5pcV1WBxZIKUFMTSPVPIjVcgFruLk+FpqkgtWoVVd6qSXzjMp2MtW9otu3AJLSndXsMiksjFJaG8ZaE8JaE8RSFcReFKSgMUeAN4/KEcXrCONwh7AVh7K4wNlcIqyOM1RnGYg8Tt4SIJMbXkzccC8+IENNqsY65YjFbKDnuc+Sx7bA5sFoU1sxmL73Rwie//jhb//YOrrh4cn/A5vfnDmDb2jIf5/qnNydrBG9ZK+6SNtylbbiKTuEsOoXD24nd68Pq7sZa0APOHgynn4glTJgwESKEydyOECFBjtEn42DBkjOU9cbsLOi2sMAXZ74vxjxfhDpfmBpfkBqfH094+GrymM2Ws8WAr7SUaP/oGJHpJBQKsWXLFuUQMixVrIqIiEw3g/ugJtdj7IMaioXMCtS2RhrffyUVpB7yHcqYjCldMkBN74G6qmoVlZ5KVVfNQNOub+ggLlfuYfH5bBcWgt1uAVz9y9R+E2QYBtFEdNR9dpOvt/pb6fB3EI6H2d/azIvNv+LKhZ9mec0C7BY75Z5yKr2VExZiKpiU6ezchlruW38/5zZM/rW8Xli0yFxGEgoNDVtzLZ2dQMKJ/1Q9/lP1o7gTA48nQGFhH16vn7L+dWGhH6+3D29hHwXeLpxFndg9PmK20JDgNd+1eVUjFeIOYYe3B4qBB98uZUFY5MtcFvtgkc9CfbeBPR6nsqODyo6OrO/Y53XSVualo7SIU2Ul/QHsHHrKKggWz8FhLchseyAiMk2oYlVmBFWsisisNJY+qAsWDB3Gf9ZZ4HKlAtQ97ebQ/WQV6nAB6hz3nKw9UKu8VQpQp4FIZGzhZ7bn4vGRr5cPm20g1Mw3CB38nNM5sfc2m+xq2cXaJ9by9l+8PeWTt4nI2PzN33yDQMBLX58Xv79w0NpLX19hah0IeDD7loye2x3oD14zA9hsa7t96D8GCRJEiY47nE2uY8Qyzm+LQ33P0OA1uZSP0BUhYoXmUmgqs3CkzMaxMgfHy1y0lLk5WeYhUuAetgVCtufs2LHk+TlPhV56eYu3uIALKKJoqm/njKOKVRkNVayKiIhMNsOA48czw9P33zerUsfQBzUUC7G/Y3//0P2fsWevGaQe9B0cMUAd3AN1JgSoLS3w+ONwxx0DPfems1jMDDNHG3gOtx2JTOy9WSy5w82Rws/B2wUFmhxaRGQ07PYExcW9FBePPPtVPG4hEPBkCWCHBrF+vxfDsBIMeggGPXR0jNzX3OUKpQWwuYPYSm8fTmdsxPNlfQ/EMwNXW5hIWYRwWZh2whwnwm/SwlhnKEilr48aX5A6X5B5vgj1vigLfAkWdBk4E7CsE5Z1GkCsfwlidq+GU244VDZ0eb8UjpZALEtfbQuWMU8Ylm1tm6Tm3b30soMdnMVZClZFpikFqyIiIhPJ5xsaoL7/PnR1Zd/f4zED03POGdIHNRQPs79jf//Q/X+l8cVvjhiglhWUZe2BWu2tnvYBai4tLbBpE1x77eQFq9O9b6jXO/rAc7htj0dzh8w0mrxN5MxisxkUFfkpKvKPuG8iAcGgZ1SVsH6/l0TCRjhcQDhcwKlTFSOe3+kMj7oS1umMpH7YZsOGu/+/USkAas0lARzpX34PkIjj6fFR6GujxHeKki4fc3xdVPi6qfT1UeoPUx40q14vzNIxKWaBYyVWmsosHCxLcKDM6A9eDQ6VhfC5Q/kWCGdlw5azOjbftQOH2h6IzCAKVkVERMYiGIS9ezMnkRquD6rNZg7ZH1yF2tBAKBHhg1Mf9A/f307j9u+yp30PBzoPjCpATa9CnckBar7OrL6hE3tvMnPUFtVy/4b7p/o2RGQaslrB6w3g9QaA9mH3Nf/NLBhVJWxfXyHxuJ1IxEUk4sLnmzPivdjt0VFVwnq9fRQUhEc/4sFqI1BaQaC0grYsfXYd4TBlXV2U+XyU+XyU9q+Tiz0eZ2FXgoVdcGnT0OMDLidtZYW0lnloKSvgeFkBx8ocHC6zc6QEAvZY1pYHye04ZmuFOHEC/f9NBDv2jIB1P/tTrxX1/yci04O+TBcRERlOLGb2PB1chXrgQN59UMM22H9qP41tjexpf4vGt/6Jxhcbhw1QSwtKM3qgJoPUmsKaWRmgGoZZofqHP8B778HRo+bHDXD99eba7zcD1b4+9Q0VEREZDYsFPJ4QHk+IysrsE0glGQaEw64cAezQIDYadRKLOejqKqOrq2zEe7HZYqOuhC0oCA470iLqctFWXU1bdfXQFxMJCvv6MoLWVADb1UVxby+ecISFJztZeLJz6OcAdJckJ9Iqw1daj6+sLLUEvF5ilviE9KVNrg3Mn/LG+v9L2tH/H8B61nMpl474OYvI6aFgVUREBMbWB7W8fOgQ/lWrCHtcZgVqe6NZhbr3efb8zqxAjRvZk8D0ADU5fH9V5apZGaDGYnDkiJlXHziQuT540AxNszl4MPvz6hsqIiIycSwWKCgIU1AQpqJiaOA4WCTiGHUIGw4XEI/b6ekpoaenZMRzW61xvF5/1iB2cCjr8QSwWo30g+krLqavuJijCxYMObc9GqU0rdp1cMWrMxqltLub0u5uaG4e+r4djoygNbl0lZXRVVpKzOEY8f2lMzCIEqWTTnz4iBIl2nuENW+9xYcXXEph0VIAVauKTDMKVkVE5Mwznj6oaVWo4fJSPuj8kMb2RrMP6tGXaHy7cdgAtcRVktEDdVWVGaTWFtbOqgA1FIKmpqHB6YED5vcmsWHmw7DZYO5cs59qfb353PPPw3//73DuuWa/0QVxWt7rAAAgAElEQVQLYMkS9Q0VERGZak5nlDlzupgzJ8fXUWmiUXt/0DpyO4JQyE0iYaO3t5je3pFnZLdYEng8gVFVw3q9AXA46KispKMyy6RfhoHH789a7Vrm81Hc04MzGqW6rY3qtras99NTVJQRtqaHr32FhUN+kmvBghMnNf3/Adh64d4db/HgWWXEi+pG/AxE5PRTsCoiIrNXeh/U9BD1+PHs++fogxqZP5cPfAf6e6A20tj+Pfb8Yg8fnvpwVAFqeg/U2RSg9vQMVJkODlCPHRu+Z6nLBYsWmeHo4sWZ6wULIL3IY9cuM1j9whdgzZrJf18iIiIyORyOGKWl3ZSWdo+4byxmxe8fXSVsIODBMKz4/YX4/YW0tWVpDTCI2x0YuS9ssR9vrR+7PfPrPVssRklXV9b+rnM6O3FFIhT39lLc28uCI0eGXDtqt9NVWpqz4jWqfkIiM4aCVRERmfnG2gc1vQfqOecQWdLAB32H+3ug7qGx/WkatzaOKkBdWbEyI0itK6qb8QGqYUBHR/aq04MHoX34eTIoKjKD0mzhaV2dqkxFREQkN7s9QUlJLyUlvSPuG49bCARGVwmbDGGDQQ/BoGfEr2cACgqCuQPYoj4KawceO+xR3MFgzhYDJd3dOGIxKjs6qOzI3u82UFBAT3ExQasZ2aza00Ub5gSpfUVF9BWpHYDIdKFgVUREZo5kH9RkeDrGPqiR5Uv5MNo60AO1/Zfsee1v+fDXHxJLZB+jXuwqHjJ8f1XlqhkfoCYS5keaLTg9cAB6R/heprIye3C6eDFUVExMv9LaWrjvPnMtIiIiMpjNZlBU1EdRUR/QOuy+iYSFQMA9qkpYv99LImEjFHITCrk5dapixHtxOsNDK2GL/XhrzeC12N3FPOM4c8PHqOprHzKplicYxBMK4QmFUue87vVX4PVXANi+fj07LtXkVSLThYJVERGZnny+zOrT5HqkPqjJKtRzziGyYhkf2nto7NjTX4H6Mo27vsWHvxk5QE0fvj/TA9Ro1OxrOniSqAMH4NCh3Jk0mMHovHkDYWl6cLp4sdnjdLLV1sL990/+dURERGT2s1oNCgsDFBYGqB6hY0AiAaGQe9STc8XjdiIRF52dLjo7y0e8F4cjMhDAFvsprPOz3NLIOdH3qUucoKH9EJec/HeeXff/0XOeOdmXqlVFphcFqyIiMrXG2gc1bRh/dOVyPiyJ0dixt78H6hvs+eD/8sG/f5AzQC1yFmVMIrWy0hzKP7do7owMUAMBMyTNVnV65AjEs3cyAMBuh4aG7FWnDQ1QUHD63oeIiIjIdGG1gscTxOMJAtmH7ScZBoRCrozAdbgQNhp1Eo066epy0tVVljrP26xNba9mF7tYy8uhy3Fgfk1bRB9F9E3K+xWR/ClYFRGR0yMeN1O+cfRBja5czoFKG+93f0hjeyN72nfTeOJZPvjjyAFqeg/UmRqg+nzZq04PHoQTJ4Y/1u3OHpwuWQL19Wa4KiIiIiJjY7GA2x3G7Q5TUXFqxP3DYUfWKtj9+5fS0jI3Y99331vNO++ZM3iuX7+dSy/dMSnvQUTyp2+jRERkYg3ug5pcj6YPan+IGluxnANzC3g/dKS/B2ojje3/zAcvDB+gpg/fT27PK543YwJUw4DW1tyTRXV2Dn98aWnmZFHpAWpt7cT0OxURERGR8XO5orhcPubM8WU8v3bt2/T2FgIQanJx/8v3cc7lu7mwYSdAfx9ZEZkuFKyKiMjYjbMPamzFcg7N87Lb0kpj+x72dOyhse07fLD9A6KJaNZTJAPUwT1QZ0qAGo/D0aPZg9ODB8HvH/74mprck0XNmXN63oOIiIiITI6BSbjgBDVs4n7+ouFx6upOTvGdiUg2ClZFRGRkyT6oyfB0NH1Qly1LTSIVW7mc5nlFvOfpofFUfx/Utqf4YOcHRP+QPUAtdBYOhKdpPVDri+unfYAaDkNTU/bwtKnJnEwqF6sV5s/PHpwuWgSFhafvfYiIiIiIiEhuClZFRGRAsg/q4CrU4fqgzp+fGsYfX7WSI/XFvFsa4o/dH7CnfQ+N7T9jf+N+on8cPkBND1FnQoDa15c9OD1wwKxINYzcxzqdZkiaLTxduNB8XURERETObEVFfaxfv13D/0WmMQWrIiJnolx9UPfuhVAo+zFpfVDjq1ZybH4p71XEeC/Y3N8D9V/Z3/wI0UPZA1Svw5uqOk1VoFauor6kHqvFOolvdmwMA06dyj1ZVGvr8McXFuaeLGruXLOoV0REREQkl6KiPk1UJTLNKVgVEZntkn1QB4eoufqgut1mH9RzziG+agUnFpSzu8pgV+I4jR172NO+g/0dTxBpjWQ9PD1AXVkxEKROxwA1kYCWltyTRXV3D398eXnufqdVVZosSkREREREZDZTsCoiMt21tMDjj8Mdd5hTu+cyuA9qcj2KPqjxVSs5ubCC96tgZ8Epsw9q21vsP/UMkcYINA493OPwDBm+v7JyJfNL5k+rADUWg8OHc08WlatAN2nu3NzhaUnJ6XkPIiIiIiIiMv0oWBURme5aWmDTJrj2WjNYjcfNRDB9EqlR9kFNrFpJa0MVe6qtvFnUw+7u/exp38O+jl8RaYpA09BD0wPUVJBatWpaBajBIBw6lD08bW42P7JcbDazr2muyaLc7tP1LkRERERERGQmUbAqIjKdhcP43niVMiD413fhbu+EPXtyl1nOmWMGqGefTXtDFftqHewsDbAreJDG9kb2d/yGcGsYsvQH9Tg8rKhYkRq6nwxSF5QumBYBand37smichXlJhUUmCFptsrT+fPB4Tg970FERERERERmDwWrIiLTSTgMb74J//IvsH07vPceZRGzl6n7pd8M7FdQAGefTeLsszm1qIYP6ly8NSfEH+KH2dOxl30d/5dwXxg+HHqJ9AA1vQfqVAeohgFtbbmH7Hd0DH98cbEZlGYLT2trwTr12bCIiIiIiIjMIgpWRUSmUjJI3b7dXN54Y+Smn8D/u3oxD3w8yr6OZwnHw3AMc0njtrtZWbkyY/j+ysqVLCxdOGUBaiIBx47lniyqr2/446uqcvc7LS/XZFEiIiIiIiJy+ihYFRE5nUYRpIYrymg+q5p9VVZ21hmEWk/wf57v5gvXwK7+uataiho52T+c3213s6JyRcbw/VVVq6YsQI1EzL6m2YLTQ4fM13OxWKC+PntwungxFBWdtrchIiIiIiIiMiwFqyIik2lQkGq88QaWQUFqZ7GT1xfbebEuwKsLYX+FDyy+1Ouro+Z6Vy28U2duf7zh4zyx7n+yqmoVC0oWYLPaTs/76ef3DwzRHxyeHjmSew4tMPuZNjRkD08bGsDlOn3vQ0RERERERGSsFKyKiEygRChI+6v/SuDlf8P1+r9T+d4BHJFY6nULcNIL2xcOLPsrImAxyzi9Di/nzllMXVEdFe4K5hXPo3zfYeBZvv4nX6fhsk8DUFtYS21R7aS+l87O3JNFnTw5/LEeT/bgdMkSsyLVdnpzYBEREREREZEJp2BVRCRPwWiQQ75DHPIdorl1P/H/+HfKd/6RJbuPc/6hANWxzP0HB6ndC6tZPGcJi8oWcUPZYhbPWcyiskUsLltMlbcKy6BGobsrXuL+9c/y6VUf49zaNRP2PgwDWlqGThKV3Pb5hj9+zpyhQ/WT2zU16ncqIiIiIiIis5uCVRGRQQzDoCPQwSHfIQ76DnKw8yAHfQc55DvE0fYDzNvXwoZm2NAMXzgK7kFBaqsX3l5WyMFz6/FddB6F517A4jlL+MuyRfx92SK8Tm9e99Niq2TTpfCfbJWcm+d7icXg6NHsVaeHDkEgMPzxtbW5J4sqK8vzZkRERERERERmEQWrInJGiiViHOk+Yoan/cFpMjw92HmQ3kgvAM4YfOS4GaLe1AwXZwlSe0s9tF24ktjHPkrhn15NzQUbuMo2gX+99tbC9vvg8uxD/0MhaGrKXnXa1GSGq7lYrbBgQfbgdNEi8OaXAYuIiIiIiIicMRSsisis1Rfp42DnwayVp4e7DxNLDE0c04PUK465uLA5iiuaORNTorISy6WXYtmwATZsoGj5coomcdx7ZUEtbL+fU83w/Imh1afHjpnD+nNxucyQNFt4umABOJ2TdusiIiIiIiIis5aCVRGZsQzD4GTfyYxK0/TK0zZ/27DHu2wuzipcyCd9c/iTQwbn7jtF3R8PYwtH+vcIm6uqKugPUdmwAevy5RPeQDQYhMOHzQrT5mb44x/hww/h+HFzKD/An/957uOLinJPFjV3rlmZKiIiIiIiIiITR8GqiExrkXiE5q7mzMrT/uD0kO8QgejwTULL3eUZk0Mt9c7nvCNhGt47TPHv3sHyxhsQ2p950KAglQkIUiMROHJkIDgdvD55Mr/zrV8Pn//8QIBaWanJokREREREREROJwWrIjLlukJdGcP0MyaL6jlKwkjkPNZqsTK/ZD6LywbC08VzFqcel1gK4M03Yft2c3nj782mpOkmIEiNxcwh+cmwdHBwevz48MP1AQoLoaHBXKqqoLjYrDbt7oYHHoAnn4Q1a8x9a2vNRURERERERESmhoJVEZl0CSPB8Z7jOYfsdwY7hz3e4/CkAtNFpYtSweniOYuZXzIfpy2tSWg4bAapv3ihP0h9Y0KC1EQCTpzIXm3a1GQO14/Hh/8c3G5YuNAMTrOt58zJfhu7dpnB6po1A8GqiIiIiIiIiEwtBasiMiGC0SBNXU1Dhuwf7DxIU1cTkXhk2OOrvdUZlabpladV3iosuYLPcBjeeC2tInVsQaphQGtr7uD0yBFzOP9wnE5zMqhcwWlVlYbri4iIiIiIiMwWClZFZFQMw+BU8FTmkP3+4PSg7yAnek8Me7zdamdh6UIzME2Gp/3BaUNZA4XOwtHdSLIiNc8g1cBCZ2d/WPqLoeFpc7M5gdRwbDaYPz93cFpbOzmTRNXWwn33aei/iIiIiIiIyHSiYFVEUmKJGEe7j6YC08GTRfWEe4Y9vthVPKTHafLxvOJ52K1j+CsnjyA1uG4DzQs3sN+ynKZmC837oOnFgQC1r2/4S1ksMG9e7uH6c+eCfQr+1qythfvvP/3XFREREREREZHcFKyKnGH6In1DJohKBqmHuw8TS8SGPX5u0dycQ/bnuOfkHrI/WuEw7NyZGaQOKiUNl1ZxpGED783ZwA428PtTy2naZqHruZFPX1ubOzitrzeH84uIiIiIiIiIjETBqsgsYxgGrf7WgQmiOg9yqGsgSG3ztw17vMvmoqGsIeeQ/QJ7wcTecFqQGn9lO5Z/fwNrKDNIPWWv4jXbBl4Kb2A7G9jXtRzeyR7gVlSYIWm24HT+fHMCKRERERERERGR8VKwKjIDReIRDncdzjlkPxANDHt8ubs8IzBNrzytK6rDapmERqGYkz8dPRCmc9tOLNu3U/reduqPvoErbgaptv79WqliOxtSy77YcoiZQWppKazO0eN04UIoHGWrVhERERERERGR8VCwKjJNdYW6cg7ZP9pzlISRyHms1WKlvrg+FZymV54uKltEaUHppNxzPA7HjmVOCnX0QBj3+ztZ0LSd1T3buZg3WExmRWp6kLrTs4HIouUsbLDQ0AB/sTAzOC2dnFsXEREREREREcmLglWRKZIwEhzvOZ4RmKYP2e8Mdg57vMfhGag07a82TT5eULoAp23im4UmEtDSkhmcpq+PHgVrLMyF7EzVm17MG3gGBakdtir2VG7gxLIN+C/cQMm65SxusPCJBpgzx5xESkRERERERERkOlOwKjKJgtEgzV3NqeA0vfK0yddEOB4e9vhqb3XOIfvV3urxTxQ1iGFAe3v20LSpCQ4fNofzp3NiBqk3DhOkhoor8V+wAfvlGyi+ZgMVK1fwJ0pPRURERERERGQGU7AqMg6GYXAqeCpjyH4qPO08yPHe48Meb7faWVCyIOeQ/ULnxDYMNQzw+bIHp83N5hIYvj0rbmuYT1Xt5Er3di4KbWdpxxs4oplBKpWVsGFDailYsYICBakiIiIiIiIiMosoWBUZQSwR42j30Ywh++mVpz3hnmGPL3IWZQSn6UP260vqsVsn9o9hT09mlengALW3d/jjLRaYO3dgUqgl9WHWJnaysm07Nfu3U7DrDSwnhw9SWbFC4/lFREREREREZFZTsCoC9EX6OOQ7lHWyqOauZmKJ2LDHzy2amzFkP73ytNxdPqFD9v1+c0h+rqrTzuFbswJQUzMQnA5e11eFce3eCdu3m8vzb0BQQaqIiIiIiIiISDoFqzKjnOw9SXFxcd7HGYZBq7/VnCAqWXmaNmS/1d867PEum4uGsoask0U1lDbgdrjH+paGCIXgyJHcwWlb28jnqKjIHZwuWADu9NsNh2Fnf5D68HZ4Q0GqiIiIiIiIiMhIFKzKjHLSf5JlLMv6WiQe4XDX4axD9g/5DuGP+oc99xz3nCETRCUfzy2ei9VinZD3EI3C0aPZJ4dqboYTJ0Y+R0mJGZLmCk6LioY5OByG19MqUhWkioiIiIiIiIjkTcGqjNvx48e56667ePHFFwkGgyxbtoynnnqKtWvXAma16KZNm3jiiSfw+XysW7eO7373u6xatSrva/WF+9jVsivrZFFHuo+QMBI5j7VarNQX15uVpqWLMoLTxXMWU1pQOubPIF08DsePZ682bWqCY8cgkfs2AfB6s4emyXVpPrcaicCbbypIFRERERERERGZQApWZVx8Ph8f/ehHufTSS3nxxRepqqri4MGDlKYlf9/85jd55JFH+OEPf8iyZct48MEHufzyy9m/fz9Fw5ZWDvWpn3wKCnK/7ra7MyaHSh+yv7B0IU6bc6xvNSWRgJMncwenR45AbPiWrBQUmCFpruC0vHwcuaaCVBERERERERGRSadgVcbl4Ycfpr6+nh/84Aep5xYuXJjaNgyDb33rW3z961/n05/+NAD/9E//RHV1NT/5yU+44447xnztc6rO4brl12VUntYU1ox7oijDgI6O3D1Om5vN0fTDcThg/vzMsDR9u6oKrBPTWUBBqoiIiIiIiIjIFFCwKuPyz//8z1xxxRV85jOfYceOHcydO5cvfvGL3H777QA0NTVx8uRJ/vRP/zR1jMvlYv369bzxxht5B6v3rvsm1637OAC1hbXUFtWO6b59vuGDU//w7VixWqG+Pvdw/bo6sNnGdGsjU5AqIiIiIiIiIjLlFKzKuBw6dIjvfe97fOUrX+Gv//qvefPNN/mrv/orXC4XN998MydPngSguro647jq6moOHz6c87zhcJhwWlloT08PAPNt61hTu2bE++rtzT1Uv7kZuruHP95iMcPRXMHpvHlmVeppoSBVRERERERERGTaUbAq45JIJLjgggvYvHkzAKtXr6axsZHvfe973Hzzzan9Bg/PNwxj2CH7Dz30EJs2bcr5eiAAhw/nDk5PnRr53qurcwen8+eDyzXyOSZFJAI7dw4Eqb//vYJUEREREREREZFpRsGqjEttbS0rV67MeG7FihX84he/AKCmpgaAkydPUls7MGy/ra1tSBVrunvuuYevfOUrqcc9PT3U19ez6as13H0LdHaOfG/l5bknh1qwADye0b7LSaYgVURERERERERkxlGwKuPy0Y9+lP3792c898EHH7BgwQIAGhoaqKmp4eWXX2b16tUARCIRduzYwcMPP5zzvC6XC1eWktHj+2tS206nmS/mCk6Li8f//iaFglQRERERERERkRlPwaqMy5e//GUuvvhiNm/ezPXXX8+bb77JE088wRNPPAGYLQA2btzI5s2bWbp0KUuXLmXz5s14PB5uvPHGvK/3+c/DZZeZ/U/POgtqxzZ31ek1miC1oiIzSF25UkGqiIiIiIiIiMg0pmBVxuXCCy/kl7/8Jffccw8PPPAADQ0NfOtb3+LP//zPU/t87WtfIxgM8sUvfhGfz8e6devYtm0bRUVFeV/v5pvhT/5kIt/BJFCQKiIiIhPlrbfga1+Db34TLrhgqu9GRERERNIoWJVxu/rqq7n66qtzvm6xWLj//vu5//77T99NnU4KUkVERGSy/OhH8Oqr8PTTClbljKSfLYiIyHSmYFVmlJqakfeZdApSRUREZDIdPgwdHebXDj/7mfncT38Kn/scGIb5dUZ/P3uR2U4/WxARkelMwarMKFMSrCpIFRERkckSiZghanv7wPqGG4bu19YGa9cOPN60CbzekRePx1w7nafvPYmMk362ICIiM4WCVZHBFKSKiIjIWBgGBAJmOJq+JAPTbM91d4/tWvfdl9/+dvvogtixLAUF+jpomjEMiMUgHjeX5Pbg9Vhfm8xzx+Nmdepgg3+28PrrUFlpflleWgpW6+n7fEVERJIUrIooSBUREZFsEgno6sodkGYLTEOh/K9jtZpfa1RUmElRZaX5/PPPD933C1+A4mLw+0e3xGLmcbGYGeKONcgd6f6TlbH5LKM9pj8xMwzzl2S6hoFTcd1c+xjGxP8yTzeXXDKwbbNBefnAH6H0P06Dt5Nrt3vq7l1ERGYPBaty5lGQKiIicmaKRs0wdDQBaXK/eDz/67hcAwFpepqT67mysoxyu8OHwf/aLlY+/zxxrNhIpNa/XfbfSZy/hurq0QVviVAE/H4sATNotQbNbWtwYLGF0pawH3v/4gj7cUT82CN+HNEAzogfZ7R/iflxxvtD5EQC+vrMZRIEKcCPd1KWGI5JuefpzGo1g0i7PXOd7bmpfK2lBf7u74be/yWXDHTQ6OiAnh7z93pbm7mMlsczNGwdLowtKzPvS0REJJ2CVZn9FKSKiIjMToOH3Q835L693aw+HYvi4qwBqVFRSaS4glBRJX5PJX3uSnpclfQmvPgDFvr6shSR7gX/W+Z21tf90NoKc6liJzUcdczhqbUxPv+2nfpoJ5/7WhXH87p5Z/9SNrb3PgwrcTwEJiXy9BDAill26SaEmxAVnJrw9xC1OAhavYSsXkI2LyG7l7DNQ9juJWz3ErF7CTu8RPqXqNNL1OEl5urfdnqJF5iPk+uE29w2XAXYHZbTFkaO9viZ8iXurl1msGq1mtl9cv3tb8OaNQP7hcNw6lTmz0Oybac/F42af30cPmwuo2GxwJw5w1fBDt72emfO5y0iImOjYFVmHwWpIiIiM49hDAy7H21FaSCQ/2UsFmIl5USKKwkVVRLwVtLnrqDXVUm3sxKfvZJT1krajQpaE5WcjFXQHXINBJ97BkLRQGDyhlwfZx4LaSby8Tvhokd5ouR/4Hzp74jgorDQDGymvqrQht1ehM1WNK5zGzYI2SFqg77ka1YDRyxoVs5GBqpok5W19vBAta0l6McaGEVbhEBgSIsEhxHFEe+iON4F0Qn+RRxri4T0xekFT47WCbO8qWhVlTlxbX09fP7z8NRTcPSo+Xw6lwvq6sxlNAzDrHLNFcBmC2O7uszjTp0yl9EqKDC/7YjF/gKPJ4DHE8DrDfRv+4c853YHsNnOgD4OIiKziIJVmVlOnjSrRtIpSBUREZl+YrGBMrIRAlKjf21J9gPNQ9TqpNtZSZe9kk5bBR1U0mpU0hqv5ES0khORCtqopL1/8RllJLpsMMbi1Vzc7pEzsmQgOtI+XcZh/niwgy99yQJnP2de4JyfEdl9Cz/+scElaypYUDrbp0S3AJ7+pXLiTx+JjL5Pbb5LOGxeY5JbJFBQMHkTkjmmvkXCvHnQ3AwHfvsjwv/rf3LJ33+bJR+/GZdrfOe1WKCkxFwWLx7dMdGo+dfZcFWwg/+Ki0TMlsvHjgHUjvr+CgqC/WFrMngNpkLYgVB2IJh1uSL6tmYWqz1+nMtffpmXL7+clrlzp/p2RCQLBasys5w8CQsXKkgVERE5zYxAkOCRdkJH24mc6CB6op1EaztGWzuWU+3YOjuwd7Xj6m6noK8dd9A36nOn/wvdQxEdVKSC0OSS67neRBGERvdvvNsNc8YReA43B9NYey+GY2F8IR++oA9fyMfRoI+rn73afPEOIFm85m2DO9byX18DXoP/8ZH/gdVixYLFXFssU/J4OtzDmB87LFjLnFjKXFgtFWM6X1axWGZ17EQu6VXaoZC55FNCOVoOx8RPQpZcCgpG/XW5ywUdj/896/d1sePxR1h11c0T/15HweEwq2draka3v2GYv1zJsPXb334Gv99DIOAhEPD2r934/cltD8GgB4BQyE0o5Kazs3xU17LZYmlhayBLZWwgI5h1uwPY7YmxfhRymp333ns0NDdz3u7dClZFpimLYZwJc0bKTNfT00NJSQnda9dSvGfPyEHqihWzfniUiIjIYImE+U/k4CxmSC/PPoPYqW7o6MDW2Y7d146jqx1XXweevna8wXaKQ+2URNopjXUwJ9FOIf787wcLncwZNiBNf9xBBVZ3wYSEnYP38Xgm70uDweGoL+ijM9iZ+dyg15PrYCw48gVk2rJgGXfAm1eQnQB33IInYqQWbwTckUTqsTti4IkkcIf7l0j/Ek5QEE7gjsQpCCcoCMeHLLbE5H9rmLBaiLrsRAqcRAocRJNrt5NogdNcx8LEjQRRl51zt++jMAp9Tthz9Trs2HAWl1JYXY/D6sBpc+KwOXBYnTjtDuwW+0DoPZ5vdSfw2FdeeWXEQxIJiMUcRCMOolFziUSdqceR/ufMx06iUQfxROZPdCyM7p7tthgORxSHI4LDEcXpjOLs304tac/Z7blHE4yrdGUcn/Fsvq4rFMIRjYLFwtnvv48zGsXvdvPjm27CAgQ8HrpLS8dzJzJKoVCILVu20N3dTfHgkbMi/RSsyoyQClaBYoDSUvjoR+HKKxWkiojMcm+99f+zd+9Rdtf1vf9fe2bPPTNDyG0SiRAPAUUuhUC5iqhAiyyV2hZsUUCwioKKoPQAZ3VFUIKsSqmyTAtHUWwVe4pYzrJSaJWoRSoEufyQAygIoRCSCeQ+mcue/ftjkkkmF5JvbjuZPB5Z37X3/n5ndseimKAAACAASURBVN4zJECe+Xy/3+Tyy5Prr0+OPLLW02y7dePnpm5e9LpRdCPHe5ZX0rxiUdp6hhLl0AnxI9d3rrtvfLrTuBUXlOxLQxZmQl4tjc9r5QlZ3Dghy5qGbtrU0zY+PWMmpK9zQgbGTkhl7wkpjds7re31WxxEd2T83JxVA6s2Gj53RhwtpZS9mvfK2JaxGds8NmNbxibV5N+f+/cNPvYvDv+LdLV3ZbA6mGq1OvSY6ta/zob7t9t778DX2+s9q1sYovYI1aSxkrT1JW392/+xqVLrLxB2X9WMjLqfnzmzRpPsWYRVtoRLAbB7Wrx46E/XF11U60kA2MFuuy35yU+Sb39754XVwcHNn8m7tVF0S+631JRVGw2k+20imO6dV4fvoF5Eb0NbVrROyKoxE9LbMSH9e01IZe/xqY4buut93aQJaZg8Pg1TJqR56oS0dnVkclspb9hF/y6zp7/n9cPo6wTSVQOrtunn3lgcHdu83vP1Hvdu2TtjW8amo6kjdaWR39SHX344M26ekbrUZTCDw48XHnVhjph8xCamYGvsqAi8K4XoHTXjQHUwi1PNq1vw8aWBSso9vWlY1Tf02NOX8qr+NK7qS8OqvjT29A89rurPhEd/k7fNXZiN3cdpMMkv39SUFyc0ZmBwIAODlQwM9mdwI+uFqlu5vHBz/zYtlZJyXXm9rSH167xuqCsPv+5esDB1m/hRSv0mj2x2iKJfVzUZqJQzMDC09Q+sed6w+rE+A/0Nw8cHBsrDq2KrBddq1tdVUi4PpL489Fhu6E9DeWDoeXkg5XJ/yg0Dw/vqywMjf4at+foKf8bW/1w78ucb192dN/32t1n3vwprPqNSV5d/OeOMrf2ZgR1AWGX38pWvDK1UTZLJW34ReAB2L88/P3RdulIp+d73hvbdfnty7rlDfzAcP37oTtGbip9bsspzSy9juO2qac+yTMjCvGm91aNTygvTVV6YSaWFGZfujBtcmLEDC9Na2bqb3QyO3TsZPyGlSRNSGj8+mTBh7baR100tLdnG+8BsV9VqNT0DPVu9crS30rtNP39dqW4ojm4shr5OIN1UHN0WE9smpmtMV6Z2TM0Fh1+Qr//q65m3dF4mtk3c/CdTSKlUSn1pKy+Syw7z5L/9Y97yhx/cYP9Td/9DjvmDszfY31/pT89AT1b0rcjK/pXD24r+ta9f91j/esf6Rh5b0bcileq6y24HVm87RimlNKYxDZv4saljRT6nPpv/dd/fXz98Hdh1rxG79pqxG26Dg/VDBbxv9bYlX29pMC0tm75x18jrxg7ta2zccd//Wut66aV87OabN9j/vz/ykcyfMqUGEwGbIqyyeznssOQIqzQAdnXV6tAdkVeuXBs/1zxff9vYsa99bcP3XLAgmTFj538t65+u3t5aSVfjq5nSsDAT64YC6bjBhdm7sjCd/d3p6F2YMT0L07pyYZqXLUzTsu7U9W/iT5av9+fycnnDGLqxQLpm37hxqSvX/n/tqtVqVvav3OqVo32VLfxT+CbUl+oLrxxd89je1L5d4+i22Kdjn/zu079LY31jSqVSPjrjo+mr9KWpvCulcNjxKknq13nclIb6hjTUN6Sjacedrttf6d9sgN3YsTm/mJO+9KV/Ez/WPbbm8hTVVNO7+seOUpe6zQfZhoY0djamoXPk/rFpyMSNfV61IZVVYzLQ05m+FXtl1cr29W7c1bI6zK69cVdvb3Oq1brVx9vS3T1hi+Yvl/vXibBbcuOuntTV7V6X/xhMUrfOI7Drqf3/fQMAO1W1OnQj6aKxc3PH1t8/uJ1uOjwjD+X6XJ7Lc33mZsNrAZRKI29KvbkbGq1/vL2xN5393ensGwqibSsXpnVld5qWDt3UqdS9cO2tnecvHLoD99Zcor61dbMrSEe87uzc6tMTt9XrxdFXe1593TC6eNXi7RJHNxlBNxNI2xvbN3239t3MuhG1VCqJquxR9nrjAVnQXpeFezdn0Z+fkXHf+UEmvLoqe73xgJrN1FDfkL3q98pezcVuHPT5X3x+iz6ummoqqWwyur5ekN3SY33rLCEdzOD2j7elJC2rt72T+tRvNNg2pTFjVj8vDzamNNCaal9r0teWwd4xqfS2p9LTnv6VnelfORRp+5bvnVXLx6Zn6bhUe9sz0N+WJUvbs2TJlv7zqA6vit3UKtj19zU29tfkP8Ur2tqybMyYdHc055YjqvmLh0sZv3RVVrS17fxhgNclrI5Czz33XKZNm1brMXaMrq5aTwCwQ625tuf2ip2bOrYzNTSsDZ+trRtum9q/aNHQDavOyW15Z36SD+XbmZsj80//lBx11Now2tKyTn+sVofO81+4Tgxd83zhwuSljexbtmzrvrCxY7cskK7Z19q63b6nW6JarWZF/4qtPq2+f7D4za3Wtbk4uub6ohs7PqZxzKiJo8DWmfyWo9L78muZ0DImpbq6VL8wmL6e5WlqG703kCmllPLqHy1p2SE/RzXVDGRgu8bajR1bo7L6x6q8znWs65I0rt62Qt1gQ+oHm1JXaU5poCWl/takvy2DfW0ZXDUmlVUdGVzVnvS3pqe/LT39rVnU35r0D4XcLGpN5rcm/eOS/qlr9/e3pm6wMa0N1Yxp69milbGtrT2pr9/2v1le1tmZv73kktze8/M80X5f7jrwHflAy/Gp7AJnpgAj+V05Cu2///458cQTc8EFF+RP/uRP0tzcXOuRth9hlT3RaLsl+m5sYGDbVnBuybFV23b/nMKamjYdNrcmhq6/v6VlKKxuVrU6VJUrlaHtuefy9M8X5JcZzJ/lu0mSD+XbmZepOeFHr2byf/UN/QNZN5CuCaa9W7Hypr5+ywPphAnJuHFb+IVtm2q1muV9y7f6tPqBwW27/ly5rrxVq0bFUWB7WDeilurqRnVU3VlKKQ2vGt1R1o2323vF7ZpjA+tcR2ewrj+Ddf1JeXm294XDB5MsT7K8v2UouK4TXYe3VW3JsrXH6qsNaUxDGuvKaSrVp7m+Lq0NdWkpl9LWUE1bYzVjmgbT0VJJe3MlY5oG01BqSGn1LaoWZ3FWZmVSTp5qfDRJ8lTjI5lXnp4kaU1r9kqxVdPAjiOsjkKPPvpovvGNb+Syyy7LxRdfnLPOOisXXHBBfv/3f7/WowFboxa3RN/NVKtJf//2P5V9/WP9W7iAr5TB1KeS+lRSzsDw8/Vfr3k+JpV0buRYa2Mlbc2VtDUPPW9tqqSlsZLWxoG0NFZWbwNpaaikqaGS5nIlzeWBNDdU0lSupKl+II31laGtbiCN5Uoa6yppqKukoTSQcqmSumplKFCuCZqV9V4PDCSvVZLuLfi4bT22ngOS/GSd13vntfx1PpfcugX/EFpatvyU+zWn3dftmKuXVavVLOtbtlVhdPGqxdscRxvqGrb6tPq2hjZxFIBC1o23rdkxZ2sMZnCjK2+3W8it9megtM5/fxt6hrYs2uxslSQ9q7dC+ltSV2nJYPOra/etXsU70Phabs7am1nNzMyi7w7sIMLqKHTwwQfnhhtuyPXXX5//+3//b775zW/mhBNOyPTp03PBBRfkQx/6UCZM2LILggM1ss4t0fv/4XtpSNL/7dvTsO4t0ffdd8fPUa0Wj2PrfVy1fyB9PZX0rqxk1fKB9K6sDL/uWzl0rG9VJf0rB9K/qrJ6G8jAqkoGeldvqwZS6atkoK+Swb6BDPZVUumrpNI/9P7V/kpK1Y1Hy3Vft6eSvbYwdm4uijZkIPWlNfsrqV99rK5aSV22040R1txNd+n2ebtRo1RKTjwxOeaYTa8o3c7XIKtWq1nau3SrVo4uXrV4vTtJF9dY37jVK0dbG1rFUQBGlbrUpXH1jx2itDbebmmQ7RvsT89ANT0DyarKYFYNDqR3sJK+DKQ/fRko9aVS15dK3apUyz2plnuS8jpn2TT0ZLChZ4M5RjxWyskPvpn88W92zNcNFFaqVrfm7gvsTnp7e/O1r30tV1xxRfr6+tLQ0JCzzjorX/rSlzJ58uRaj7dFli5dms7OzixZsiQdHU4BYpQaHExefTWZPz855JDh3dUM/b/Umsdhf/RHW7cqcJ3n1Uol6R8YehxYfWxw6FhpsJLS9rr7EGvV1Q2ddl5fP3TX9zXP13+9pcdG83s8/vhQPF3f3LnJEUcU/tYPVgezrHfZJqPoqz2vvu7K0cHqtv1+WD+OjrjG6GYCaUu5RRwF2E19/vNbdvMq9jyr+uqyrKecJT3lLF9Vn+W9dfndS+Pzm2XLk/d+fIOPL938y/zRMfNy6KGP12DaPc+qVaty3XXX6RC8LitWR7GHHnoo3/jGN3L77benra0tn/3sZ3PBBRfkpZdeyl/91V/lfe97X375y1/WekwY/VasGIqlG9tefnnt81deGQqb61n/L6qH3XnnNo+2yffeQv3DazXL66zrHPl65LFyqnX1qdbXr34cGdVK5fqU6utTaqhPqVxOXUP90NY49Ly+sT51TeXUN9an3FifclN9ys3locem+jS0DH1cqbwLh0RxbIs8v/j5rFj8mxyUpFJK6qtrHx966aGsGrcyrY2thU+r39Y42lTftNWn1YujAMC6mhsH09zYlwmdfcP7TjhwSR5b2JfvJ8lgXVI3OPz4R3/0gxw6YQet0gW2irA6Ct1www259dZb89RTT+Xd7353brvttrz73e9O3eprx02bNi1///d/nze/+c01nhR2YwMDyYIFm46k627Llxd666WN4/JCX1dWpDVH58ENjl+fz+b57FcoaG7Jx9U31KepdShONrYMPW9sLaeptT7NbfVpalv7vGVMfVra6rboJkZtRW9ixE5TrVZTqVbSX+nPwOBA+gf701/p3+rHrX6PjXz+vc/emzcsSR4ck8zrSL5+RHLBw8nUpckZP/5Y/nvu1n/dzeXmrT6tvqVhx9ylGQBgjeZKe7KsK1m6T/LwR5Ij/nfS8eLQ/mzFTTqBHUZYHYVmz56d888/Px/+8IfT1dW10Y954xvfmK9//es7eTLYxVWryeLFmw+l8+cPXf+0wJVUeutb0t0wOfPTlXn9k/NipSvzs+G2IBPT3zf0t9CH5+E8nBmppJT6VIcfb8+f5bX9jsg++2w8YG7uru2bunN7ff2O+saOLpXByraHxG2JkRvZNzA4sNUz7Mr+uzPZ75Kkrz5JKbl5RtJYSfrKQzdkmtA2YasCaXO5udZfGgDAJk1qaUzb/348HW2rMuOIRzL3h3dm6YrmTDr/tgirsGsRVkehZ555ZrMf09jYmHPPPXcnTAO7gJ6eodPsXy+Urtn6+jb/fqtVSvV5rWFiXilNzn9XujJvYOOxdH66srwyZug85nU0NyddXUPbPpOSI7uSSZPW7ut7dmJe/mxX5nUO5utvW5ALfjohU5fW5Vv/OjGHnLa9v0k7zmB1cLuGwK16j+24wrK6vW5MtQtrqGtIQ33DRh/LdeVNHtvk43r7ynXlLfq8eUvn5XP3fm7tYKWhqPqL83+RY6Zu5NqrAACjQGfnsnzmk3+X+vpKSqVkxoy5qVTqUy5v280wge1PWB2Fbr311owZMyZ/+qd/OmL///k//ycrV64UVBkdKpVk4cLNh9L585MlSwq99bLyXllQPzkvDXZlXv+mY+mi6rgM9o1c5tnQMDKOHrj6+br71jxvb9/05TafX/x8ft7Znf267kzfB9+TjElufstAGu/8+1xT+a+89JsnMqFtwo6Jkdt5heW2XtNyd7C5UFgoRm7i2JbGyNd73JL3qC/V7zLXAX345YeTDN35dzCDw4+NZdcWAwBGt3UjaqkUURV2UcLqKHTdddfl7/7u7zbYP3HixHz0ox8VVtl1VavJ0qVbFksXLEgK3LG+r64pC8uT83K1Ky/2d+XlTcTSVzIpvQPNyTr3kKqvTyZOXBtEZ6wTR9cPpmPHvv69iVb2r0z3yu78ZkV3Fi1clO6V3ele2Z1FPSOf//uz/z70CReu88ltr6bvg3+av5ybZBuuL7krqC/Vb7cQ+HoxcqtXWBZ4j3JdeZcJkaPNxLaJ6RrTlakdU3PB4Rfk67/6euYtnZeJbRNrPRoAAICwOho9//zzmTZt2gb7991337zwwgs1mIg9Xm/v0Kn4WxJMe3q2+G0HU8qr5Yl5pdSVFwe68nJ106tLlwx2Jn1r41eplIwfvzaIHtCVvG0jq0q7upJx45LV934bYU0k7V7ZnRdXLsoj/92d7mc2jKTDz1cuSs/Aln99r6ejqSPtje27ZYws15VTV9rINxTWs0/HPvndp3+XxvrGlEqlfHTGR9NX6UtTuanWowEAAAiro9HEiRPz2GOPZb/99hux/9FHH824ceNqMxSjz+BgsmjR60fSNdc0fe21Qm+9vL4jr5S68lKlKy9tIpa+nMnpzvhUBkb+a2zs2LVBdPKk5PBNnIY/YUJSXudT142ki1YOxdD/t7I7i57Y/pG0oa4h41vHD2/jWsdlfMs6z1fv717ZnQ/d+aENPn/uR+fmiMlHbNXPDbubdSNqqVQSVQEAgF2GsDoKfeADH8inPvWptLe358QTT0ySzJkzJ5/+9KfzgQ98oMbTsctbvvz1I+ma7ZVXhq5zuoX6Sw1ZWDcUSl8a3DCSrnsqfk+ldcTndnSMjKP7b+I0/IkTk6amtZF0TSBds/2uZ1G6X+5O9293fiQd3zo+41qGXo9pHLNFp45v6vqSAAAAQO0Jq6PQF77whTz//PN517velfLqJXmDg4M555xzcu2119Z4Omqiv3/omqSvF0rXbCtWFHrrV+vH5+XNxNL56cpr1bFJZW1MbG0dGUcP38R1S9v3XpkV1Q0j6aKeRXlkzfMnF6V77q4dSbeG60sCAADArqtUrVartR6CHePpp5/Oo48+mpaWlhxyyCHZd999az3SVlu6dGk6OzuzZMmSdHR01HqcXUO1OnSK/eZC6fz5SXd3obdeWWrN/NLkEbF0/VA6P11ZkIkZSMPw5zU2bvwapWued45fmca9ulM/ZlFWZsPT62txuv2aQLqjI+nW6h3oHb6+ZLVadX1JAIDdzOc///lajwBshVWrVuW6667TIXhdVqyOYgcccEAOOOCAWo9BUStXDp1m/3qhdM3W37/FbzuQ+iysmzQcSzcWStdsK6pjktV/5VIuD51iv24kPawrGTtxZVrHv5ymvRalNKY71Zbu9GRRFvWsjaTP9SzKg2si6f8TSbeG60sCAADArklYHaVefPHF3HXXXXnhhRfS19c34tgNN9xQo6n2YJXKhqfib2pburTQW79WGpuXqpuOpGu2RRmX6uDQndhLpaFYumYl6fjJK3PwpO78/vhFadzrudS3dycti9Lf0D10Gn7P0ErSl1Z257E1K0mX9CRLin8r9uRICgAAAIwewuoo9B//8R9573vfm2nTpuWpp57KwQcfnN/97nepVqs54gh3Et9uqtVkyZIti6ULFyaDW37ToVWl5rxcnZyXNxNLX8mk9FXXrmAcNy6Z+IaVGfuG7nR0LUrn+O5M2Ov/y+91zEm1uTsDjd3prV+UZZXu4ZWlz6x7uv3K1dsWEkkBAACAPZWwOgpdccUVueyyy3L11Venvb09d9xxRyZOnJizzz47f/iHf1jr8XZ9q1YNnYr/eqF0zWn6vb1b/LaV1GVhJm42ls5PV5ZWO5KUkoaV6ejqztg3LEpHV3faxnenaewLaW9/OO2t3ZnWuCir6oZWlS7pG1pV+uT6p9v3J1m0+fnWjaTDUVQkBQAAANgoYXUUevLJJ/Pd7343SVIul9PT05MxY8bk6quvzvve9758/OMfr/GE2+Dhh5OTTir+eYODQzdw2lwonT8/Wby40FsvTudmQ+n8dGVhuS2Dba8lLYvSPK47nZO70zZ+UZrGdqe+/ZmUWhelvrE74+q701JdlCX93VlV6cnSJBtcHGAwyfJNzySSAgAAAOxYwuoo1NbWlt7VKymnTJmS3/72t3nrW9+aJOkueHf4Xc2Cr96ejjVhtVpNli/ffCidP3/o+qaVyhb/PL1pfP1QWr9XXm5tzCutdVnVtjxp7U65Y1HaJnaneWx3yh2PJq3/kcrqU+9XVLszWF27knTV6m0DfRvu2lQkXTeQiqQAAAAAO5ewOgodc8wx+c///M8cdNBBOf3003PZZZfl8ccfz/e///0cc8wxtR5vm4z9wdeTw36RLFo0tK3aaJ7cpAWZsGEkrds785ta83Jzc+a31Wd++2AWj1mVtC1K3ZjuNI1dlHLHsym1/jKVpkXpre/OQGnDu9sPZOheThvcz2mdS6uKpAAAAACjg7A6Ct1www1ZvnzoPPGZM2dm+fLl+d73vpf9998/f/M3f1Pj6bZNw+BA8thjI/Yty5i1kbQ0IfPLnSND6ZhS5ncMZGHnygy0LU7aulPuWJhS6/9Lpak7g/UbRtI1BpNs6uiWRNJ1A6lICgAAADB6CKujTKVSybx583LooYcmSVpbW/O1r32txlNtfwOlUj532Ftyy5snZkXn4qR1UdI6N2nYdCQd8fnrvRZJAQAAAChCWB1l6uvr8wd/8Ad58sknM3bs2FqPs8P8/l9U86spv07y6w2OFY2k41rHpb2xXSQFAAAAYIsJq6PQIYcckmeffTbTpk2r9Sjb3ZrbT5VSygcPOTt/sP8fiKQAAAAA7HTC6ij0xS9+MZ/97GdzzTXXZMaMGWlraxtxvKOjo0aTbbtfdSVvWZ5c9c4f5v3vP63W4wAAAACwhxJWR6E//MM/TJK8973vHbFys1qtplQqpVKpbOpTd3nvOjdpbEh+cOCkWo8CAAAAwB5MWB2FfvKTn9R6hB3m8ClH5KW+l3LImybWehQAAAAA9mDC6ij09re/vdYj7DA/OffHaW5rTlO5qdajAAAAALAHE1ZHoZ/+9Keve/zEE0/cSZNsf6VSSVQFAAAAoOaE1VHopJNO2mDfutda3Z2vsQoAAAAAu4K6Wg/A9vfaa6+N2BYsWJC77747Rx11VO65555ajwcAAAAAuz0rVkehzs7ODfadcsopaWpqymc+85nMnTu3BlMBAAAAwOhhxeoeZMKECXnqqadqPQYAAAAA7PasWB2FHnvssRGvq9VqXn755Vx33XU57LDDajQVAAAAAIwewuoo9Hu/93splUqpVqsj9h9zzDH5xje+UaOpAAAAAGD0EFZHoeeee27E67q6ukyYMCHNzc01mggAAAAARhdhdRTad999az0CAAAAAIxqbl41Cn3qU5/KV77ylQ3233TTTbnkkktqMBEAAAAAjC7C6ih0xx135Pjjj99g/3HHHZd//ud/rsFEAAAAADC6CKuj0KJFi9LZ2bnB/o6OjnR3d9dgIgAAAAAYXYTVUWj//ffP3XffvcH+H/3oR3nTm95Ug4kAAAAAYHRx86pR6NJLL83FF1+chQsX5p3vfGeS5D/+4z/y5S9/OTfeeGONpwMAAACA3Z+wOgqdf/756e3tzRe/+MVcc801SZL99tsvs2fPzjnnnFPj6QAAAABg9yesjlIf//jH8/GPfzwLFy5MS0tLxowZU+uRAAAAAGDUEFZHoeeeey4DAwOZPn16JkyYMLz/mWeeSUNDQ/bbb7/aDQcAAAAAo4CbV41C5513Xu6///4N9v/Xf/1XzjvvvJ0/EAAAAACMMsLqKPSrX/0qxx9//Ab7jznmmDzyyCM1mAgAAAAARhdhdRQqlUpZtmzZBvuXLFmSSqVSg4kAAAAAYHQRVkeht73tbZk1a9aIiFqpVDJr1qyccMIJNZwMAAAAAEYHN68aha6//vqceOKJOfDAA/O2t70tSfKzn/0sS5YsyU9+8pMaTwcAAAAAuz8rVkehgw46KI899ljOPPPMLFiwIMuWLcs555yTp59+OgMDA7UeDwAAAAB2e1asjlJTpkzJtddemyRZvHhx/vEf/zEnn3xyHnnkEddZBQAAAIBtZMXqKPbjH/84H/zgBzNlypTcdNNNOe200/LQQw/VeiwAAAAA2O1ZsTrKvPjii/nmN7+Zb3zjG1mxYkXOPPPM9Pf354477shBBx1U6/EAAAAAYFSwYnUUefe7352DDjoov/71r/PVr341L730Ur761a/WeiwAAAAAGHWsWB1F7rnnnnzqU5/Kxz/+8UyfPr3W4wAAAADAqGXF6ijys5/9LMuWLcuRRx6Zo48+OjfddFMWLlxY67EAAAAAYNQRVkeRY489NrfccktefvnlfOxjH8vtt9+eN7zhDRkcHMy9996bZcuW1XpEAAAAABgVhNVRqLW1Neeff35+/vOf5/HHH89ll12W6667LhMnTsx73/veWo8HAAAAALs9YXWUO/DAA3P99dfnxRdfzHe/+91ajwMAAAAAo4Kwuoeor6/PGWeckbvuuqvWowAAAADAbk9YBQAAAAAoSFgFAAAAAChIWAUAAAAAKEhYBQAAAAAoSFgFAAAAAChIWAUAAAAAKEhYBQAAAAAoSFgFAAAAAChIWAUAAAAAKEhYBQAAAAAoSFgFAAAAAChIWAUAAAAAKEhYBQAAAAAoSFhlu5o1a1ZKpVIuueSS4X3VajUzZ87MlClT0tLSkpNOOilPPPFEDacEAAAAgG0jrLLdPPjgg7n55ptz6KGHjth//fXX54YbbshNN92UBx98MF1dXTnllFOybNmyGk0KAAAAANtGWGW7WL58ec4+++zccsstGTt27PD+arWaG2+8MVdddVXe//735+CDD863vvWtrFy5Mt/5zndqODEAAAAAbD1hle3ioosuyumnn56TTz55xP7nnnsu8+fPz6mnnjq8r6mpKW9/+9tz//337+wxAQAAAGC7KNd6AHZ/t99+ex5++OE8+OCDGxybP39+kmTSpEkj9k+aNCnPP//8Jt+zt7c3vb29w6+XLl26naYFAAAAgG1nxSrbZN68efn0pz+df/iHf0hzc/MmP65UKo14Xa1WN9i3rlmzZqWzs3N4mzp16nabGQAAAAC26pl5DAAAF09JREFUlbDKNpk7d24WLFiQGTNmpFwup1wuZ86cOfnKV76Scrk8vFJ1zcrVNRYsWLDBKtZ1XXHFFVmyZMnwNm/evB36dQAAAABAES4FwDZ517velccff3zEvg9/+MN585vfnL/8y7/Mm970pnR1deXee+/N4YcfniTp6+vLnDlz8qUvfWmT79vU1JSmpqYdOjsAAAAAbC1hlW3S3t6egw8+eMS+tra2jBs3bnj/JZdckmuvvTbTp0/P9OnTc+2116a1tTV//ud/XouRAQAAAGCbCavscJdffnl6enryiU98Iq+99lqOPvro3HPPPWlvb6/1aAAAAACwVYRVtrv77rtvxOtSqZSZM2dm5syZNZkHAAAAALY3N68CAAAAAChIWAUAAAAAKEhYBQAAAAAoSFgFAAAAAChIWAUAAAAAKEhYBQAAAAAoSFgFAAAAAChIWAUAAAAAKEhYBQAAAAAoSFgFAAAAAChIWAUAAAAAKEhYBQAAAAAoSFgFAAAAAChIWAUAAAAAKEhYBQAAAAAoSFgFAAAAAChIWAUAAAAAKEhYBQAAAAAoSFgFAAAAAChIWAUAAAAAKEhYBQAAAAAoSFgFAAAAAChIWAUAAAAAKEhYBQAAAAAoSFgFAAAAAChIWAUAAAAAKEhYBQAAAAAoSFgFAAAAAChIWAUAAAAAKEhYBQAAAAAoSFgFAAAAAChIWAUAAAAAKEhYBQAAAAAoSFgFAAAAAChIWAUAAAAAKEhYBQAAAAAoSFgFAAAAAChIWAUAAAAAKEhYBQAAAAAoSFgFAAAAAChIWAUAAAAAKEhYBQAAAAAoSFgFAAAAAChIWAUAAAAAKEhYBQAAAAAoSFgFAAAAAChIWAUAAAAAKEhYBQAAAAAoSFgFAAAAAChIWAUAAAAAKEhYBQAAAAAoSFgFAAAAAChIWAUAAAAAKEhYBQAAAAAoSFgFAAAAAChIWAUAAAAAKEhYBQAAAAAoSFgFAAAAAChIWAUAAAAAKEhYBQAAAAAoSFgFAAAAAChIWAUAAAAAKEhYBQAAAAAoSFgFAAAAAChIWAUAAAAAKEhYBQAAAAAoSFgFAAAAAChIWAUAAAAAKEhYBQAAAAAoSFgFAAAAAChIWAUAAAAAKEhYBQAAAAAoSFgFAAAAAChIWAUAAAAAKEhYBQAAAAAoSFgFAAAAAChIWAUAAAAAKEhYBQAAAAAoSFgFAAAAAChIWAUAAAAAKEhYBQAAAAAoSFgFAAAAAChIWAUAAAAAKEhYBQAAAAAoSFgFAAAAAChIWAUAAAAAKEhYBQAAAAAoSFgFAAAAAChIWAUAAAAAKEhYBQAAAAAoSFgFAAAAAChIWAUAAAAAKEhYBQAAAAAoSFhlm8yaNStHHXVU2tvbM3HixJxxxhl56qmnRnxMtVrNzJkzM2XKlLS0tOSkk07KE088UaOJAQAAAGDbCatskzlz5uSiiy7KAw88kHvvvTcDAwM59dRTs2LFiuGPuf7663PDDTfkpptuyoMPPpiurq6ccsopWbZsWQ0nBwAAAICtV671AOze7r777hGvb7311kycODFz587NiSeemGq1mhtvvDFXXXVV3v/+9ydJvvWtb2XSpEn5zne+k4997GO1GBsAAAAAtokVq2xXS5YsSZLsvffeSZLnnnsu8+fPz6mnnjr8MU1NTXn729+e+++/f5Pv09vbm6VLl47YAAAAAGBXIayy3VSr1Vx66aU54YQTcvDBBydJ5s+fnySZNGnSiI+dNGnS8LGNmTVrVjo7O4e3qVOn7rjBAQAAAKAgYZXt5uKLL85jjz2W7373uxscK5VKI15Xq9UN9q3riiuuyJIlS4a3efPmbfd5AQAAAGBrucYq28UnP/nJ3HXXXfnpT3+affbZZ3h/V1dXkqGVq5MnTx7ev2DBgg1Wsa6rqakpTU1NO25gAAAAANgGVqyyTarVai6++OJ8//vfz49//ONMmzZtxPFp06alq6sr99577/C+vr6+zJkzJ8cdd9zOHhcAAAAAtgsrVtkmF110Ub7zne/kX/7lX9Le3j583dTOzs60tLSkVCrlkksuybXXXpvp06dn+vTpufbaa9Pa2po///M/r/H0AAAAALB1hFW2yezZs5MkJ5100oj9t956a84777wkyeWXX56enp584hOfyGuvvZajjz4699xzT9rb23fytAAAAACwfQirbJNqtbrZjymVSpk5c2Zmzpy54wcCAAAAgJ3ANVYBAAAAAAoSVgEAAAAAChJWAQAAAAAKElYBAAAAAAoSVgEAAAAAChJWAQAAAAAKElYBAAAAAAoSVgEAAAAAChJWAQAAAAAKElYBAAAAAAoSVgEAAAAAChJWAQAAAAAKElYBAAAAAAoSVgEAAAAAChJWAQAAAAAKElYBAAAAAAoSVgEAAAAAChJWAQAAAAAKElYBAAAAAAoSVgEAAAAAChJWAQAAAAAKElYBAAAAAAoSVgEAAAAAChJWAQAAAAAKElYBAAAAAAoSVgEAAAAAChJWAQAAAAAKElYBAAAAAAoSVgEAAAAAChJWAQAAAAAKElYBAAAAAAoSVgEAAAAAChJWAQAAAAAKElYBAAAAAAoSVgEAAAAAChJWAQAAAAAKElYBAAAAAAoSVgEAAAAAChJWAQAAAAAKElYBAAAAAAoSVgEAAAAAChJWAQAAAAAKElYBAAAAAAoSVgEAAAAAChJWAQAAAAAKElYBAAAAAAoSVgEAAAAAChJWAQAAAAAKElYBAAAAAAoSVgEAAAAAChJWAQAAAAAKElYBAAAAAAoSVgEAAAAAChJWAQAAAAAKElYBAAAAAAoSVgEAAAAAChJWAQAAAAAKElYBAAAAAAoSVgEAAAAAChJWAQAAAAAKElYBAAAAAAoSVgEAAAAAChJWAQAAAAAKElYBAAAAAAoSVgEAAAAAChJWAQAAAAAKElYBAAAAAAoSVgEAAAAAChJWAQAAAAAKElYBAAAAAAoSVgEAAAAAChJWAQAAAAAKElYBAAAAAAoSVgEAAAAAChJWAQAAAAAKElYBAAAAAAoSVgEAAAAAChJWAQAAAAAKElYBAAAAAAoSVgEAAAAAChJWAQAAAAAKElYBAAAAAAoSVgEAAAAAChJWAQAAAAAKElYBAAAAAAoSVgEAAAAAChJWAQAAAAAKElYBAAAAAAoSVgEAAAAAChJWAQAAAAAKElYBAAAAAAoSVgEAAAAAChJW2Wm+9rWvZdq0aWlubs6MGTPys5/9rNYjAQAAAMBWEVbZKb73ve/lkksuyVVXXZVf/epXedvb3pbTTjstL7zwQq1HAwAAAIDChFV2ihtuuCEXXHBBPvKRj+Qtb3lLbrzxxkydOjWzZ8+u9WgAAAAAUFi51gMw+vX19WXu3Ln5n//zf47Yf+qpp+b+++/f6Of09vamt7d3+PWSJUuSJEuXLt1xgwIAAGxnq1atqvUIwFZY0ySq1WqNJ2FXJqyyw3V3d6dSqWTSpEkj9k+aNCnz58/f6OfMmjUrn//85zfYP3Xq1B0yIwAAAMD6li1bls7OzlqPwS5KWGWnKZVKI15Xq9UN9q1xxRVX5NJLLx1+vXjx4uy777554YUX/AuNPc7SpUszderUzJs3Lx0dHbUeB3Y6vwfYk/n1z57O7wH2ZH7911a1Ws2yZcsyZcqUWo/CLkxYZYcbP3586uvrN1idumDBgg1Wsa7R1NSUpqamDfZ3dnb6Dwp7rI6ODr/+2aP5PcCezK9/9nR+D7An8+u/dizsYnPcvIodrrGxMTNmzMi99947Yv+9996b4447rkZTAQAAAMDWs2KVneLSSy/Nhz70oRx55JE59thjc/PNN+eFF17IhRdeWOvRAAAAAKCw+pkzZ86s9RCMfgcffHDGjRuXa6+9Nn/913+dnp6efPvb385hhx22xe9RX1+fk046KeWyvw9gz+PXP3s6vwfYk/n1z57O7wH2ZH79w66tVK1Wq7UeAgAAAABgd+IaqwAAAAAABQmrAAAAAAAFCasAAAAAAAUJqwAAAAAABQmr7NJ++tOf5j3veU+mTJmSUqmUH/zgB7UeCXaaWbNm5aijjkp7e3smTpyYM844I0899VStx4KdYvbs2Tn00EPT0dGRjo6OHHvssfnRj35U67GgJmbNmpVSqZRLLrmk1qPATjFz5syUSqURW1dXV63Hgp3qv//7v/PBD34w48aNS2tra37v934vc+fOrfVYwHqEVXZpK1asyGGHHZabbrqp1qPATjdnzpxcdNFFeeCBB3LvvfdmYGAgp556alasWFHr0WCH22effXLdddfloYceykMPPZR3vvOded/73pcnnnii1qPBTvXggw/m5ptvzqGHHlrrUWCneutb35qXX355eHv88cdrPRLsNK+99lqOP/74NDQ05Ec/+lF+/etf58tf/nL22muvWo8GrKdc6wHg9Zx22mk57bTTaj0G1MTdd9894vWtt96aiRMnZu7cuTnxxBNrNBXsHO95z3tGvP7iF7+Y2bNn54EHHshb3/rWGk0FO9fy5ctz9tln55ZbbskXvvCFWo8DO1W5XLZKlT3Wl770pUydOjW33nrr8L799tuvdgMBm2TFKsBuYsmSJUmSvffeu8aTwM5VqVRy++23Z8WKFTn22GNrPQ7sNBdddFFOP/30nHzyybUeBXa6Z555JlOmTMm0adPygQ98IM8++2ytR4Kd5q677sqRRx6ZP/3TP83EiRNz+OGH55Zbbqn1WMBGCKsAu4FqtZpLL700J5xwQg4++OBajwM7xeOPP54xY8akqakpF154Ye68884cdNBBtR4Ldorbb789Dz/8cGbNmlXrUWCnO/roo3Pbbbfl3/7t33LLLbdk/vz5Oe6447Jo0aJajwY7xbPPPpvZs2dn+vTp+bd/+7dceOGF+dSnPpXbbrut1qMB63EpAIDdwMUXX5zHHnssP//5z2s9Cuw0Bx54YB555JEsXrw4d9xxR84999zMmTNHXGXUmzdvXj796U/nnnvuSXNzc63HgZ1u3UuBHXLIITn22GPzP/7H/8i3vvWtXHrppTWcDHaOwcHBHHnkkbn22muTJIcffnieeOKJzJ49O+ecc06NpwPWZcUqwC7uk5/8ZO6666785Cc/yT777FPrcWCnaWxszP77758jjzwys2bNymGHHZa//du/rfVYsMPNnTs3CxYsyIwZM1Iul1MulzNnzpx85StfSblcTqVSqfWIsFO1tbXlkEMOyTPPPFPrUWCnmDx58gZ/kfyWt7wlL7zwQo0mAjbFilWAXVS1Ws0nP/nJ3Hnnnbnvvvsybdq0Wo8ENVWtVtPb21vrMWCHe9e73rXBHdA//OEP581vfnP+8i//MvX19TWaDGqjt7c3Tz75ZN72trfVehTYKY4//vg89dRTI/Y9/fTT2XfffWs0EbApwiq7tOXLl+c3v/nN8OvnnnsujzzySPbee++88Y1vrOFksONddNFF+c53vpN/+Zd/SXt7e+bPn58k6ezsTEtLS42ngx3ryiuvzGmnnZapU6dm2bJluf3223Pffffl7rvvrvVosMO1t7dvcD3ttra2jBs3znW22SN89rOfzXve85688Y1vzIIFC/KFL3whS5cuzbnnnlvr0WCn+MxnPpPjjjsu1157bc4888z88pe/zM0335ybb7651qMB6xFW2aU99NBDecc73jH8es01lc4999x885vfrNFUsHPMnj07SXLSSSeN2H/rrbfmvPPO2/kDwU70yiuv5EMf+lBefvnldHZ25tBDD83dd9+dU045pdajAbCDvfjii/mzP/uzdHd3Z8KECTnmmGPywAMPWK3HHuOoo47KnXfemSuuuCJXX311pk2blhtvvDFnn312rUcD1lOqVqvVWg8BAAAAALA7cfMqAAAAAICChFUAAAAAgIKEVQAAAACAgoRVAAAAAICChFUAAAAAgIKEVQAAAACAgoRVAAAAAICChFUAAAAAgIKEVQAA9nj33XdfSqVSFi9eXOtRAADYTQirAAAAAAAFCasAAAAAAAUJqwAA1Fy1Ws3111+fN73pTWlpaclhhx2Wf/7nf06y9jT9H/7whznssMPS3Nyco48+Oo8//viI97jjjjvy1re+NU1NTdlvv/3y5S9/ecTx3t7eXH755Zk6dWqampoyffr0fP3rXx/xMXPnzs2RRx6Z1tbWHHfccXnqqaeGjz366KN5xzvekfb29nR0dGTGjBl56KGHdtB3BACAXV251gMAAMD/+l//K9///vcze/bsTJ8+PT/96U/zwQ9+MBMmTBj+mM997nP527/923R1deXKK6/Me9/73jz99NNpaGjI3Llzc+aZZ2bmzJk566yzcv/99+cTn/hExo0bl/POOy9Jcs455+QXv/hFvvKVr+Swww7Lc889l+7u7hFzXHXVVfnyl7+cCRMm5MILL8z555+f//zP/0ySnH322Tn88MMze/bs1NfX55FHHklDQ8NO+x4BALBrKVWr1WqthwAAYM+1YsWKjB8/Pj/+8Y9z7LHHDu//yEc+kpUrV+ajH/1o3vGOd+T222/PWWedlSR59dVXs88+++Sb3/xmzjzzzJx99tlZuHBh7rnnnuHPv/zyy/PDH/4wTzzxRJ5++ukceOCBuffee3PyySdvMMN9992Xd7zjHfn3f//3vOtd70qS/Ou//mtOP/309PT0pLm5OR0dHfnqV7+ac889dwd/RwAA2B24FAAAADX161//OqtWrcopp5ySMWPGDG+33XZbfvvb3w5/3LrRde+9986BBx6YJ598Mkny5JNP5vjjjx/xvscff3yeeeaZVCqVPPLII6mvr8/b3/72153l0EMPHX4+efLkJMmCBQuSJJdeemk+8pGP5OSTT8511103YjYAAPY8wioAADU1ODiYJPnhD3+YRx55ZHj79a9/PXyd1U0plUpJhq7Ruub5GuuemNXS0rJFs6x7av+a91sz38yZM/PEE0/k9NNPz49//OMcdNBBufPOO7fofQEAGH2EVQAAauqggw5KU1NTXnjhhey///4jtqlTpw5/3AMPPDD8/LXXXsvTTz+dN7/5zcPv8fOf/3zE+95///054IADUl9fn0MOOSSDg4OZM2fONs16wAEH5DOf+UzuueeevP/978+tt966Te8HAMDuy82rAACoqfb29nz2s5/NZz7zmQwODuaEE07I0qVLc//992fMmDHZd999kyRXX311xo0bl0mTJuWqq67K+PHjc8YZZyRJLrvsshx11FG55pprctZZZ+UXv/hFbrrppnzta19Lkuy3334599xzc/755w/fvOr555/PggULcuaZZ252xp6ennzuc5/Ln/zJn2TatGl58cUX8+CDD+aP//iPd9w3BgCAXZqwCgBAzV1zzTWZOHFiZs2alWeffTZ77bVXjjjiiFx55ZXDp+Jfd911+fSnP51nnnkmhx12WO666640NjYmSY444oj80z/9U/7qr/4q11xzTSZPnpyrr74655133vDPMXv27Fx55ZX5xCc+kUWLFuWNb3xjrrzyyi2ar76+PosWLco555yTV155JePHj8/7//927uCEYRiIouCmA7XkFtyROnNHLiG55vogkARmKhA6PpZ/nrP3/vhfAADwHx7P9/EpAAD4Mdd1zXEcc9/3rLW+/RwAAJgZG6sAAAAAAJmwCgAAAAAQmQIAAAAAAIhcrAIAAAAARMIqAAAAAEAkrAIAAAAARMIqAAAAAEAkrAIAAAAARMIqAAAAAEAkrAIAAAAARMIqAAAAAEAkrAIAAAAARMIqAAAAAEAkrAIAAAAARMIqAAAAAEAkrAIAAAAARMIqAAAAAEAkrAIAAAAARMIqAAAAAEAkrAIAAAAARMIqAAAAAEAkrAIAAAAARMIqAAAAAEAkrAIAAAAARMIqAAAAAEAkrAIAAAAARMIqAAAAAEAkrAIAAAAARMIqAAAAAEAkrAIAAAAARMIqAAAAAEAkrAIAAAAARC9kmP7ewpI/sQAAAABJRU5ErkJggg==;" vertex="1" parent="1">
          <mxGeometry x="40" y="40" width="774.74" height="380" as="geometry" />
        </mxCell>
        <mxCell id="8dpQ0Yl2feOmEA2Zb6H8-4" value="" style="rounded=0;whiteSpace=wrap;html=1;strokeColor=none;" vertex="1" parent="1">
          <mxGeometry x="134" y="393" width="400" height="60" as="geometry" />
        </mxCell>
        <mxCell id="8dpQ0Yl2feOmEA2Zb6H8-5" value="" style="rounded=0;whiteSpace=wrap;html=1;strokeColor=none;" vertex="1" parent="1">
          <mxGeometry x="610" y="379" width="120" height="60" as="geometry" />
        </mxCell>
        <mxCell id="8dpQ0Yl2feOmEA2Zb6H8-6" value="During Training - Accuracy mesured with valid set&amp;nbsp;" style="text;html=1;strokeColor=none;fillColor=none;align=center;verticalAlign=middle;whiteSpace=wrap;rounded=0;" vertex="1" parent="1">
          <mxGeometry x="170" y="409" width="379" height="30" as="geometry" />
        </mxCell>
        <mxCell id="8dpQ0Yl2feOmEA2Zb6H8-13" value="" style="endArrow=classic;startArrow=classic;html=1;rounded=0;exitX=0;exitY=0;exitDx=0;exitDy=0;entryX=0;entryY=0.25;entryDx=0;entryDy=0;" edge="1" parent="1">
          <mxGeometry width="50" height="50" relative="1" as="geometry">
            <mxPoint x="134.0000000000001" y="400" as="sourcePoint" />
            <mxPoint x="610" y="401" as="targetPoint" />
          </mxGeometry>
        </mxCell>
        <mxCell id="8dpQ0Yl2feOmEA2Zb6H8-14" value="EPOCHS" style="edgeLabel;html=1;align=center;verticalAlign=middle;resizable=0;points=[];" vertex="1" connectable="0" parent="8dpQ0Yl2feOmEA2Zb6H8-13">
          <mxGeometry x="0.1092" relative="1" as="geometry">
            <mxPoint x="-38" as="offset" />
          </mxGeometry>
        </mxCell>
        <mxCell id="8dpQ0Yl2feOmEA2Zb6H8-15" value="" style="endArrow=classic;startArrow=classic;html=1;rounded=0;entryX=0;entryY=0.25;entryDx=0;entryDy=0;" edge="1" parent="1">
          <mxGeometry width="50" height="50" relative="1" as="geometry">
            <mxPoint x="610" y="401" as="sourcePoint" />
            <mxPoint x="738" y="401" as="targetPoint" />
          </mxGeometry>
        </mxCell>
        <mxCell id="8dpQ0Yl2feOmEA2Zb6H8-16" value="TEST SET" style="edgeLabel;html=1;align=center;verticalAlign=middle;resizable=0;points=[];" vertex="1" connectable="0" parent="8dpQ0Yl2feOmEA2Zb6H8-15">
          <mxGeometry x="0.1092" relative="1" as="geometry">
            <mxPoint x="-7" as="offset" />
          </mxGeometry>
        </mxCell>
      </root>
    </mxGraphModel>
  </diagram>
</mxfile>
